<?xml version="1.0" encoding="UTF-8" standalone="no"?>
<!-- Created with Inkscape (http://www.inkscape.org/) -->

<svg
   xmlns:dc="http://purl.org/dc/elements/1.1/"
   xmlns:cc="http://creativecommons.org/ns#"
   xmlns:rdf="http://www.w3.org/1999/02/22-rdf-syntax-ns#"
   xmlns:svg="http://www.w3.org/2000/svg"
   xmlns="http://www.w3.org/2000/svg"
   xmlns:xlink="http://www.w3.org/1999/xlink"
   xmlns:sodipodi="http://sodipodi.sourceforge.net/DTD/sodipodi-0.dtd"
   xmlns:inkscape="http://www.inkscape.org/namespaces/inkscape"
   width="544.11328"
   height="519.05646"
   id="svg3168"
   version="1.1"
   inkscape:version="0.48.5 r10040"
   sodipodi:docname="hard-mode-arrows.svg">
  <defs
     id="defs3170">
    <linearGradient
       id="linearGradient4188">
      <stop
         style="stop-color:#f7f9ca;stop-opacity:1;"
         offset="0"
         id="stop4190" />
      <stop
         style="stop-color:#e5f3ce;stop-opacity:1;"
         offset="1"
         id="stop4192" />
    </linearGradient>
    <linearGradient
       id="linearGradient4182">
      <stop
         id="stop4184"
         offset="0"
         style="stop-color:#f1484b;stop-opacity:1;" />
      <stop
         id="stop4186"
         offset="1"
         style="stop-color:#f9a438;stop-opacity:1;" />
    </linearGradient>
    <linearGradient
       id="linearGradient4176">
      <stop
         style="stop-color:#d1e8f4;stop-opacity:1;"
         offset="0"
         id="stop4178" />
      <stop
         style="stop-color:#daf2f9;stop-opacity:1;"
         offset="1"
         id="stop4180" />
    </linearGradient>
    <linearGradient
       id="linearGradient4170">
      <stop
         style="stop-color:#1073a6;stop-opacity:1;"
         offset="0"
         id="stop4172" />
      <stop
         style="stop-color:#80c8de;stop-opacity:1;"
         offset="1"
         id="stop4174" />
    </linearGradient>
    <linearGradient
       id="linearGradient4164">
      <stop
         id="stop4166"
         offset="0"
         style="stop-color:#f1f381;stop-opacity:1;" />
      <stop
         id="stop4168"
         offset="1"
         style="stop-color:#abd97a;stop-opacity:1;" />
    </linearGradient>
    <linearGradient
       id="linearGradient4158">
      <stop
         style="stop-color:#fecc49;stop-opacity:1;"
         offset="0"
         id="stop4160" />
      <stop
         style="stop-color:#ffde73;stop-opacity:1;"
         offset="1"
         id="stop4162" />
    </linearGradient>
    <linearGradient
       id="linearGradient4150">
      <stop
         style="stop-color:#fbc9c8;stop-opacity:1;"
         offset="0"
         id="stop4152" />
      <stop
         style="stop-color:#fde3c6;stop-opacity:1;"
         offset="1"
         id="stop4154" />
    </linearGradient>
    <linearGradient
       id="linearGradient4142">
      <stop
         style="stop-color:#fecc49;stop-opacity:1;"
         offset="0"
         id="stop4144" />
      <stop
         style="stop-color:#ffde73;stop-opacity:1;"
         offset="1"
         id="stop4146" />
    </linearGradient>
    <linearGradient
       id="linearGradient4096">
      <stop
         id="stop4098"
         offset="0"
         style="stop-color:#ffb6c0;stop-opacity:1;" />
      <stop
         id="stop4100"
         offset="1"
         style="stop-color:#f6a3ab;stop-opacity:1;" />
    </linearGradient>
    <linearGradient
       id="linearGradient4090">
      <stop
         id="stop4092"
         offset="0"
         style="stop-color:#ff5f93;stop-opacity:1;" />
      <stop
         id="stop4094"
         offset="1"
         style="stop-color:#ff80a7;stop-opacity:1;" />
    </linearGradient>
    <linearGradient
       id="linearGradient4084">
      <stop
         id="stop4086"
         offset="0"
         style="stop-color:#fdedb2;stop-opacity:1;" />
      <stop
         id="stop4088"
         offset="1"
         style="stop-color:#efe19f;stop-opacity:1;" />
    </linearGradient>
    <linearGradient
       id="linearGradient4078">
      <stop
         id="stop4080"
         offset="0"
         style="stop-color:#fecc49;stop-opacity:1;" />
      <stop
         id="stop4082"
         offset="1"
         style="stop-color:#ffde73;stop-opacity:1;" />
    </linearGradient>
    <linearGradient
       id="linearGradient4032">
      <stop
         style="stop-color:#ffc7b0;stop-opacity:1;"
         offset="0"
         id="stop4034" />
      <stop
         style="stop-color:#f6b99b;stop-opacity:1;"
         offset="1"
         id="stop4036" />
    </linearGradient>
    <linearGradient
       id="linearGradient4016">
      <stop
         style="stop-color:#ff632d;stop-opacity:1;"
         offset="0"
         id="stop4018" />
      <stop
         style="stop-color:#ffac97;stop-opacity:1;"
         offset="1"
         id="stop4020" />
    </linearGradient>
    <linearGradient
       inkscape:collect="always"
       xlink:href="#linearGradient4188"
       id="linearGradient4126"
       gradientUnits="userSpaceOnUse"
       gradientTransform="matrix(-0.8660254,-0.5,0.5,-0.8660254,-872.01019,795.85061)"
       x1="-612.77203"
       y1="514.7525"
       x2="-45.990616"
       y2="514.7525" />
    <linearGradient
       inkscape:collect="always"
       xlink:href="#linearGradient4164"
       id="linearGradient4128"
       gradientUnits="userSpaceOnUse"
       gradientTransform="matrix(-0.8660254,-0.5,0.5,-0.8660254,-872.01019,795.85061)"
       x1="-328.20947"
       y1="661.58344"
       x2="-328.20947"
       y2="62.364716" />
    <linearGradient
       inkscape:collect="always"
       xlink:href="#linearGradient4176"
       id="linearGradient4138"
       gradientUnits="userSpaceOnUse"
       gradientTransform="matrix(-0.8660254,-0.5,0.5,-0.8660254,-872.01019,795.85061)"
       x1="-612.77203"
       y1="514.7525"
       x2="-45.990616"
       y2="514.7525" />
    <linearGradient
       inkscape:collect="always"
       xlink:href="#linearGradient4170"
       id="linearGradient4140"
       gradientUnits="userSpaceOnUse"
       gradientTransform="matrix(-0.8660254,-0.5,0.5,-0.8660254,-872.01019,795.85061)"
       x1="-328.20947"
       y1="661.58344"
       x2="-328.20947"
       y2="62.364716" />
    <linearGradient
       inkscape:collect="always"
       xlink:href="#linearGradient4182"
       id="linearGradient4148"
       gradientUnits="userSpaceOnUse"
       gradientTransform="matrix(-0.8660254,-0.5,0.5,-0.8660254,-872.01019,795.85061)"
       x1="-328.20947"
       y1="661.58344"
       x2="-328.20947"
       y2="62.364716" />
    <linearGradient
       inkscape:collect="always"
       xlink:href="#linearGradient4150"
       id="linearGradient4156"
       gradientUnits="userSpaceOnUse"
       gradientTransform="matrix(-0.8660254,-0.5,0.5,-0.8660254,-872.01019,795.85061)"
       x1="-612.77203"
       y1="514.7525"
       x2="-45.990616"
       y2="514.7525" />
    <linearGradient
       inkscape:collect="always"
       xlink:href="#linearGradient4150"
       id="linearGradient4208"
       gradientUnits="userSpaceOnUse"
       gradientTransform="matrix(-0.8660254,-0.5,0.5,-0.8660254,-872.01019,795.85061)"
       x1="-612.77203"
       y1="514.7525"
       x2="-45.990616"
       y2="514.7525" />
    <linearGradient
       inkscape:collect="always"
       xlink:href="#linearGradient4182"
       id="linearGradient4210"
       gradientUnits="userSpaceOnUse"
       gradientTransform="matrix(-0.8660254,-0.5,0.5,-0.8660254,-872.01019,795.85061)"
       x1="-328.20947"
       y1="661.58344"
       x2="-328.20947"
       y2="62.364716" />
    <linearGradient
       inkscape:collect="always"
       xlink:href="#linearGradient4188"
       id="linearGradient4212"
       gradientUnits="userSpaceOnUse"
       gradientTransform="matrix(-0.8660254,-0.5,0.5,-0.8660254,-872.01019,795.85061)"
       x1="-612.77203"
       y1="514.7525"
       x2="-45.990616"
       y2="514.7525" />
    <linearGradient
       inkscape:collect="always"
       xlink:href="#linearGradient4164"
       id="linearGradient4214"
       gradientUnits="userSpaceOnUse"
       gradientTransform="matrix(-0.8660254,-0.5,0.5,-0.8660254,-872.01019,795.85061)"
       x1="-328.20947"
       y1="661.58344"
       x2="-328.20947"
       y2="62.364716" />
    <linearGradient
       inkscape:collect="always"
       xlink:href="#linearGradient4176"
       id="linearGradient4216"
       gradientUnits="userSpaceOnUse"
       gradientTransform="matrix(-0.8660254,-0.5,0.5,-0.8660254,-872.01019,795.85061)"
       x1="-612.77203"
       y1="514.7525"
       x2="-45.990616"
       y2="514.7525" />
    <linearGradient
       inkscape:collect="always"
       xlink:href="#linearGradient4170"
       id="linearGradient4218"
       gradientUnits="userSpaceOnUse"
       gradientTransform="matrix(-0.8660254,-0.5,0.5,-0.8660254,-872.01019,795.85061)"
       x1="-328.20947"
       y1="661.58344"
       x2="-328.20947"
       y2="62.364716" />
  </defs>
  <sodipodi:namedview
     id="base"
     pagecolor="#ffffff"
     bordercolor="#666666"
     borderopacity="1.0"
     inkscape:pageopacity="0.0"
     inkscape:pageshadow="2"
     inkscape:zoom="0.7"
     inkscape:cx="606.2794"
     inkscape:cy="195.3529"
     inkscape:document-units="px"
     inkscape:current-layer="layer1"
     showgrid="false"
     showguides="true"
     inkscape:guide-bbox="true"
     inkscape:object-paths="true"
     inkscape:object-nodes="true"
     inkscape:snap-nodes="false"
     inkscape:snap-global="false"
     inkscape:window-width="2048"
     inkscape:window-height="1099"
     inkscape:window-x="1912"
     inkscape:window-y="22"
     inkscape:window-maximized="1"
     fit-margin-top="0"
     fit-margin-left="0"
     fit-margin-right="0"
     fit-margin-bottom="0" />
  <metadata
     id="metadata3173">
    <rdf:RDF>
      <cc:Work
         rdf:about="">
        <dc:format>image/svg+xml</dc:format>
        <dc:type
           rdf:resource="http://purl.org/dc/dcmitype/StillImage" />
        <dc:title></dc:title>
      </cc:Work>
    </rdf:RDF>
  </metadata>
  <g
     inkscape:label="Layer 1"
     inkscape:groupmode="layer"
     id="layer1"
     transform="translate(609.30556,-260.79854)">
    <g
       id="g4194">
      <g
         id="g4113">
        <path
           style="fill:none;stroke:#000000;stroke-width:40;stroke-miterlimit:4;stroke-dasharray:none"
           d="m -122.22248,693.34402 c 26.756161,-7.16933 42.524611,-34.48108 35.355351,-61.23726 L -167.10103,332.66975 c -10.037,-37.4586 -48.27354,-59.53447 -85.73214,-49.49747 l -299.43701,80.2339 c -26.75616,7.16933 -42.52461,34.48108 -35.35535,61.23726 l 7.76458,28.97778 c 7.16925,26.75617 34.48107,42.52466 61.23724,35.35534 l 152.88788,-40.96619 -129.511,224.31963 c -11.08,19.19113 -4.55166,43.55527 14.63948,54.63528 l 43.31719,24.98379 c 19.19113,11.08 43.55516,4.55169 54.63521,-14.63952 l 129.36444,-224.02158 40.853,152.46539 c 7.16926,26.75618 34.48108,42.52466 61.23725,35.35534 z"
           id="rect3146"
           inkscape:connector-curvature="0"
           sodipodi:nodetypes="sccccssscsccccsss"
           inkscape:export-filename="C:\Users\psmay\AppData\Roaming\StepMania 5\Themes\stepmania-on-the-chill-theme\_assets\normal-arrow.png"
           inkscape:export-xdpi="200"
           inkscape:export-ydpi="200" />
        <path
           sodipodi:nodetypes="sccccssscsccccsss"
           inkscape:connector-curvature="0"
           id="path3973"
           d="m -122.22248,693.34402 c 26.756161,-7.16933 42.524611,-34.48108 35.355351,-61.23726 L -167.10103,332.66975 c -10.037,-37.4586 -48.27354,-59.53447 -85.73214,-49.49747 l -299.43701,80.2339 c -26.75616,7.16933 -42.52461,34.48108 -35.35535,61.23726 l 7.76458,28.97778 c 7.16925,26.75617 34.48107,42.52466 61.23724,35.35534 l 152.88788,-40.96619 -129.511,224.31963 c -11.08,19.19113 -4.55166,43.55527 14.63948,54.63528 l 43.31719,24.98379 c 19.19113,11.08 43.55516,4.55169 54.63521,-14.63952 l 129.36444,-224.02158 40.853,152.46539 c 7.16926,26.75618 34.48108,42.52466 61.23725,35.35534 z"
           style="fill:url(#linearGradient4208);fill-opacity:1;stroke:none"
           inkscape:export-filename="C:\Users\psmay\AppData\Roaming\StepMania 5\Themes\stepmania-on-the-chill-theme\_assets\normal-arrow.png"
           inkscape:export-xdpi="200"
           inkscape:export-ydpi="200" />
        <path
           style="font-size:medium;font-style:normal;font-variant:normal;font-weight:normal;font-stretch:normal;text-indent:0;text-align:start;text-decoration:none;line-height:normal;letter-spacing:normal;word-spacing:normal;text-transform:none;direction:ltr;block-progression:tb;writing-mode:lr-tb;text-anchor:start;baseline-shift:baseline;color:#000000;fill:url(#linearGradient4210);fill-opacity:1;stroke:none;stroke-width:40;marker:none;visibility:visible;display:inline;overflow:visible;enable-background:accumulate;font-family:Sans;-inkscape-font-specification:Sans"
           d="m -420.1117,726.07696 c 15.07874,8.70572 34.21165,3.5562 42.91736,-11.52255 l 131.60938,-227.95412 48.47549,180.91299 c 4.39109,16.38786 20.33702,25.59426 36.72489,21.20313 l 28.98535,-7.76661 c 16.38791,-4.39115 25.60986,-20.36403 21.21875,-36.75195 l -80.2282,-299.41569 c -7.25882,-27.09031 -34.15392,-42.6182 -61.24423,-35.35938 l -299.44276,80.21257 c -16.3879,4.39115 -25.60985,20.36404 -21.21875,36.75195 l 7.76661,28.98536 c 4.39109,16.38786 20.36408,25.60988 36.75195,21.21875 l 180.8703,-48.46406 -131.59375,227.92706 c -8.70571,15.07875 -3.59888,34.22309 11.47986,42.9288 l 46.92775,27.09375 z"
           id="path3977"
           inkscape:connector-curvature="0"
           inkscape:export-filename="C:\Users\psmay\AppData\Roaming\StepMania 5\Themes\stepmania-on-the-chill-theme\_assets\normal-arrow.png"
           inkscape:export-xdpi="200"
           inkscape:export-ydpi="200" />
      </g>
      <g
         transform="matrix(-0.4330127,-0.25,0.25,-0.4330127,-519.68892,788.308)"
         id="g4118">
        <path
           inkscape:export-ydpi="200"
           inkscape:export-xdpi="200"
           inkscape:export-filename="C:\Users\psmay\AppData\Roaming\StepMania 5\Themes\stepmania-on-the-chill-theme\_assets\normal-arrow.png"
           sodipodi:nodetypes="sccccssscsccccsss"
           inkscape:connector-curvature="0"
           id="path4120"
           d="m -122.22248,693.34402 c 26.756161,-7.16933 42.524611,-34.48108 35.355351,-61.23726 L -167.10103,332.66975 c -10.037,-37.4586 -48.27354,-59.53447 -85.73214,-49.49747 l -299.43701,80.2339 c -26.75616,7.16933 -42.52461,34.48108 -35.35535,61.23726 l 7.76458,28.97778 c 7.16925,26.75617 34.48107,42.52466 61.23724,35.35534 l 152.88788,-40.96619 -129.511,224.31963 c -11.08,19.19113 -4.55166,43.55527 14.63948,54.63528 l 43.31719,24.98379 c 19.19113,11.08 43.55516,4.55169 54.63521,-14.63952 l 129.36444,-224.02158 40.853,152.46539 c 7.16926,26.75618 34.48108,42.52466 61.23725,35.35534 z"
           style="fill:none;stroke:#000000;stroke-width:40;stroke-miterlimit:4;stroke-dasharray:none" />
        <path
           inkscape:export-ydpi="200"
           inkscape:export-xdpi="200"
           inkscape:export-filename="C:\Users\psmay\AppData\Roaming\StepMania 5\Themes\stepmania-on-the-chill-theme\_assets\normal-arrow.png"
           style="fill:url(#linearGradient4212);fill-opacity:1;stroke:none"
           d="m -122.22248,693.34402 c 26.756161,-7.16933 42.524611,-34.48108 35.355351,-61.23726 L -167.10103,332.66975 c -10.037,-37.4586 -48.27354,-59.53447 -85.73214,-49.49747 l -299.43701,80.2339 c -26.75616,7.16933 -42.52461,34.48108 -35.35535,61.23726 l 7.76458,28.97778 c 7.16925,26.75617 34.48107,42.52466 61.23724,35.35534 l 152.88788,-40.96619 -129.511,224.31963 c -11.08,19.19113 -4.55166,43.55527 14.63948,54.63528 l 43.31719,24.98379 c 19.19113,11.08 43.55516,4.55169 54.63521,-14.63952 l 129.36444,-224.02158 40.853,152.46539 c 7.16926,26.75618 34.48108,42.52466 61.23725,35.35534 z"
           id="path4122"
           inkscape:connector-curvature="0"
           sodipodi:nodetypes="sccccssscsccccsss" />
        <path
           inkscape:export-ydpi="200"
           inkscape:export-xdpi="200"
           inkscape:export-filename="C:\Users\psmay\AppData\Roaming\StepMania 5\Themes\stepmania-on-the-chill-theme\_assets\normal-arrow.png"
           inkscape:connector-curvature="0"
           id="path4124"
           d="m -420.1117,726.07696 c 15.07874,8.70572 34.21165,3.5562 42.91736,-11.52255 l 131.60938,-227.95412 48.47549,180.91299 c 4.39109,16.38786 20.33702,25.59426 36.72489,21.20313 l 28.98535,-7.76661 c 16.38791,-4.39115 25.60986,-20.36403 21.21875,-36.75195 l -80.2282,-299.41569 c -7.25882,-27.09031 -34.15392,-42.6182 -61.24423,-35.35938 l -299.44276,80.21257 c -16.3879,4.39115 -25.60985,20.36404 -21.21875,36.75195 l 7.76661,28.98536 c 4.39109,16.38786 20.36408,25.60988 36.75195,21.21875 l 180.8703,-48.46406 -131.59375,227.92706 c -8.70571,15.07875 -3.59888,34.22309 11.47986,42.9288 l 46.92775,27.09375 z"
           style="font-size:medium;font-style:normal;font-variant:normal;font-weight:normal;font-stretch:normal;text-indent:0;text-align:start;text-decoration:none;line-height:normal;letter-spacing:normal;word-spacing:normal;text-transform:none;direction:ltr;block-progression:tb;writing-mode:lr-tb;text-anchor:start;baseline-shift:baseline;color:#000000;fill:url(#linearGradient4214);fill-opacity:1;stroke:none;stroke-width:40;marker:none;visibility:visible;display:inline;overflow:visible;enable-background:accumulate;font-family:Sans;-inkscape-font-specification:Sans" />
      </g>
      <g
         id="g4130"
         transform="matrix(0,-0.25,0.25,0,-558.60681,502.97645)">
        <path
           style="fill:none;stroke:#000000;stroke-width:40;stroke-miterlimit:4;stroke-dasharray:none"
           d="m -122.22248,693.34402 c 26.756161,-7.16933 42.524611,-34.48108 35.355351,-61.23726 L -167.10103,332.66975 c -10.037,-37.4586 -48.27354,-59.53447 -85.73214,-49.49747 l -299.43701,80.2339 c -26.75616,7.16933 -42.52461,34.48108 -35.35535,61.23726 l 7.76458,28.97778 c 7.16925,26.75617 34.48107,42.52466 61.23724,35.35534 l 152.88788,-40.96619 -129.511,224.31963 c -11.08,19.19113 -4.55166,43.55527 14.63948,54.63528 l 43.31719,24.98379 c 19.19113,11.08 43.55516,4.55169 54.63521,-14.63952 l 129.36444,-224.02158 40.853,152.46539 c 7.16926,26.75618 34.48108,42.52466 61.23725,35.35534 z"
           id="path4132"
           inkscape:connector-curvature="0"
           sodipodi:nodetypes="sccccssscsccccsss"
           inkscape:export-filename="C:\Users\psmay\AppData\Roaming\StepMania 5\Themes\stepmania-on-the-chill-theme\_assets\normal-arrow.png"
           inkscape:export-xdpi="200"
           inkscape:export-ydpi="200" />
        <path
           sodipodi:nodetypes="sccccssscsccccsss"
           inkscape:connector-curvature="0"
           id="path4134"
           d="m -122.22248,693.34402 c 26.756161,-7.16933 42.524611,-34.48108 35.355351,-61.23726 L -167.10103,332.66975 c -10.037,-37.4586 -48.27354,-59.53447 -85.73214,-49.49747 l -299.43701,80.2339 c -26.75616,7.16933 -42.52461,34.48108 -35.35535,61.23726 l 7.76458,28.97778 c 7.16925,26.75617 34.48107,42.52466 61.23724,35.35534 l 152.88788,-40.96619 -129.511,224.31963 c -11.08,19.19113 -4.55166,43.55527 14.63948,54.63528 l 43.31719,24.98379 c 19.19113,11.08 43.55516,4.55169 54.63521,-14.63952 l 129.36444,-224.02158 40.853,152.46539 c 7.16926,26.75618 34.48108,42.52466 61.23725,35.35534 z"
           style="fill:url(#linearGradient4216);fill-opacity:1;stroke:none"
           inkscape:export-filename="C:\Users\psmay\AppData\Roaming\StepMania 5\Themes\stepmania-on-the-chill-theme\_assets\normal-arrow.png"
           inkscape:export-xdpi="200"
           inkscape:export-ydpi="200" />
        <path
           style="font-size:medium;font-style:normal;font-variant:normal;font-weight:normal;font-stretch:normal;text-indent:0;text-align:start;text-decoration:none;line-height:normal;letter-spacing:normal;word-spacing:normal;text-transform:none;direction:ltr;block-progression:tb;writing-mode:lr-tb;text-anchor:start;baseline-shift:baseline;color:#000000;fill:url(#linearGradient4218);fill-opacity:1;stroke:none;stroke-width:40;marker:none;visibility:visible;display:inline;overflow:visible;enable-background:accumulate;font-family:Sans;-inkscape-font-specification:Sans"
           d="m -420.1117,726.07696 c 15.07874,8.70572 34.21165,3.5562 42.91736,-11.52255 l 131.60938,-227.95412 48.47549,180.91299 c 4.39109,16.38786 20.33702,25.59426 36.72489,21.20313 l 28.98535,-7.76661 c 16.38791,-4.39115 25.60986,-20.36403 21.21875,-36.75195 l -80.2282,-299.41569 c -7.25882,-27.09031 -34.15392,-42.6182 -61.24423,-35.35938 l -299.44276,80.21257 c -16.3879,4.39115 -25.60985,20.36404 -21.21875,36.75195 l 7.76661,28.98536 c 4.39109,16.38786 20.36408,25.60988 36.75195,21.21875 l 180.8703,-48.46406 -131.59375,227.92706 c -8.70571,15.07875 -3.59888,34.22309 11.47986,42.9288 l 46.92775,27.09375 z"
           id="path4136"
           inkscape:connector-curvature="0"
           inkscape:export-filename="C:\Users\psmay\AppData\Roaming\StepMania 5\Themes\stepmania-on-the-chill-theme\_assets\normal-arrow.png"
           inkscape:export-xdpi="200"
           inkscape:export-ydpi="200" />
      </g>
    </g>
  </g>
</svg>
