<?xml version="1.0" encoding="UTF-8" standalone="no"?>
<!-- Created with Inkscape (http://www.inkscape.org/) -->

<svg
   xmlns:dc="http://purl.org/dc/elements/1.1/"
   xmlns:cc="http://creativecommons.org/ns#"
   xmlns:rdf="http://www.w3.org/1999/02/22-rdf-syntax-ns#"
   xmlns:svg="http://www.w3.org/2000/svg"
   xmlns="http://www.w3.org/2000/svg"
   xmlns:sodipodi="http://sodipodi.sourceforge.net/DTD/sodipodi-0.dtd"
   xmlns:inkscape="http://www.inkscape.org/namespaces/inkscape"
   width="8862.749pt"
   height="4989.0767pt"
   viewBox="0 0 3126.581 1760.0354"
   version="1.1"
   id="svg8"
   inkscape:version="0.92.3 (2405546, 2018-03-11)"
   sodipodi:docname="stage-names-and-other-large-words.svg">
  <defs
     id="defs2" />
  <sodipodi:namedview
     id="base"
     pagecolor="#ffffff"
     bordercolor="#666666"
     borderopacity="1.0"
     inkscape:pageopacity="0.0"
     inkscape:pageshadow="2"
     inkscape:zoom="0.04306746"
     inkscape:cx="14733.509"
     inkscape:cy="-667.44928"
     inkscape:document-units="pt"
     inkscape:current-layer="layer1"
     showgrid="true"
     units="pt"
     fit-margin-top="100"
     fit-margin-left="100"
     fit-margin-right="100"
     fit-margin-bottom="100"
     showguides="true"
     inkscape:guide-bbox="true"
     inkscape:window-width="1920"
     inkscape:window-height="1024"
     inkscape:window-x="0"
     inkscape:window-y="28"
     inkscape:window-maximized="1"
     inkscape:snap-object-midpoints="false"
     inkscape:snap-midpoints="false"
     inkscape:snap-grids="true"
     inkscape:snap-intersection-paths="true"
     inkscape:snap-global="true">
    <inkscape:grid
       type="xygrid"
       id="grid861"
       units="pt"
       spacingx="1.7638889"
       spacingy="1.7638889"
       empspacing="10"
       originx="-139.34723"
       originy="1287.6372" />
  </sodipodi:namedview>
  <metadata
     id="metadata5">
    <rdf:RDF>
      <cc:Work
         rdf:about="">
        <dc:format>image/svg+xml</dc:format>
        <dc:type
           rdf:resource="http://purl.org/dc/dcmitype/StillImage" />
        <dc:title></dc:title>
      </cc:Work>
    </rdf:RDF>
  </metadata>
  <g
     inkscape:label="Layer 1"
     inkscape:groupmode="layer"
     id="layer1"
     transform="translate(31.498017,14.380335)">
    <path
       style="font-style:normal;font-variant:normal;font-weight:normal;font-stretch:normal;font-size:35.27777863px;line-height:1.25;font-family:STDevGen_1stMix;-inkscape-font-specification:'STDevGen_1stMix, Normal';font-variant-ligatures:normal;font-variant-caps:normal;font-variant-numeric:normal;font-feature-settings:normal;text-align:center;letter-spacing:0px;word-spacing:0px;writing-mode:lr-tb;text-anchor:middle;fill:#0080ff;fill-opacity:1;stroke:#000000;stroke-width:3.52777791;stroke-miterlimit:4;stroke-dasharray:none;paint-order:markers stroke fill"
       d="M 7.3078812,80.545448 C 6.2848273,80.580728 5.54365,81.321902 5.54365,82.309679 V 99.948392 H 9.0715985 V 89.365064 H 14.363265 V 85.837115 H 9.0715985 v -1.763718 h 5.2916665 v -3.527949 z m 49.4300588,0.03566 v 19.367294 h 3.527949 V 82.309679 c 0,-0.987777 -0.776454,-1.728576 -1.764231,-1.728576 z m -17.638718,3.492289 v 3.527949 h 12.347051 v 1.763718 H 40.86294 c -1.023057,0 -1.763718,0.775938 -1.763718,1.763718 v 5.32732 H 37.334991 V 85.837115 c 0,-0.98778 -0.775939,-1.728579 -1.763718,-1.728579 H 21.45999 V 96.456102 H 19.682321 V 85.837115 c 0,-0.98778 -0.775941,-1.728579 -1.763718,-1.728579 h -1.763717 v 15.839856 h 8.833053 V 87.601346 h 8.819616 V 99.948392 H 54.974222 V 85.837115 c 0,-0.98778 -0.776454,-1.763718 -1.764231,-1.763718 z m 3.527435,8.819616 h 8.819616 v 3.527439 h -8.819616 z"
       id="path863"
       inkscape:connector-curvature="0"
       sodipodi:nodetypes="cscccccccccccccsscccccssccsscccsscccccccsscccccc" />
    <path
       style="font-style:normal;font-variant:normal;font-weight:normal;font-stretch:normal;font-size:35.27777863px;line-height:1.25;font-family:STDevGen_1stMix;-inkscape-font-specification:'STDevGen_1stMix, Normal';font-variant-ligatures:normal;font-variant-caps:normal;font-variant-numeric:normal;font-feature-settings:normal;text-align:center;letter-spacing:0px;word-spacing:0px;writing-mode:lr-tb;text-anchor:middle;fill:#0080ff;fill-opacity:1;stroke:#000000;stroke-width:3.52777791;stroke-miterlimit:4;stroke-dasharray:none;paint-order:markers stroke fill"
       d="m 40.78615,151.10134 0.007,3.52744 H 35.5299 v 2.64583 l -4.41005,3.13986 -4.40955,-3.13986 v -2.64583 h -3.52795 v 3.52795 c 0,0.70555 0.31784,1.16419 0.70589,1.44642 l 4.16254,2.96312 -4.16254,2.99878 c -0.38805,0.28222 -0.70589,0.74102 -0.70589,1.41128 H 9.0716 v -3.52794 h 12.34705 v -7.05538 c 0,-0.98778 -0.77594,-1.76423 -1.76372,-1.76423 H 7.30737 c -1.02306,0.0353 -1.76372,0.77645 -1.76372,1.76423 v 12.34704 c 0,1.02306 0.74066,1.76372 1.76372,1.76372 h 19.40295 v -2.61018 l 4.40955,-3.13986 4.41006,3.13986 v 2.61018 h 3.52744 v -3.52744 c -0.0353,-0.67026 -0.35247,-1.12906 -0.74052,-1.41128 l -4.16306,-2.99878 4.16306,-2.96312 c 0.38805,-0.28223 0.70538,-0.74087 0.70538,-1.44642 h 1.77819 l 0.0212,10.58332 c 0,1.02306 0.7408,1.76372 1.72857,1.76372 h 14.13248 v -12.34704 h 21.15271 v 1.76371 H 67.25204 c -1.02306,0 -1.76371,0.77645 -1.76371,1.76423 v 7.05538 c 0,1.02306 0.74065,1.76372 1.76371,1.76372 h 14.11129 v -14.11076 c 0,-0.98778 -0.77594,-1.76423 -1.76371,-1.76423 l -26.4449,0.0357 v 12.31189 h -8.84081 v -8.8196 h 7.05538 v -3.52795 h -7.05538 v -3.52744 z M 9.0718,158.15673 h 8.8191 v 1.76371 H 9.0718 Z m 59.94467,5.29166 h 8.81909 v 3.52794 h -8.81909 z"
       id="path890"
       inkscape:connector-curvature="0"
       sodipodi:nodetypes="ccccccccscccccccsscsscccccccccccccccccccsssscscccccccccccccccccccc" />
    <path
       style="font-style:normal;font-variant:normal;font-weight:normal;font-stretch:normal;font-size:35.27777863px;line-height:1.25;font-family:STDevGen_1stMix;-inkscape-font-specification:'STDevGen_1stMix, Normal';font-variant-ligatures:normal;font-variant-caps:normal;font-variant-numeric:normal;font-feature-settings:normal;text-align:center;letter-spacing:0px;word-spacing:0px;writing-mode:lr-tb;text-anchor:middle;fill:#0080ff;fill-opacity:1;stroke:#000000;stroke-width:3.52777791;stroke-miterlimit:4;stroke-dasharray:none;paint-order:markers stroke fill"
       d="m 58.425176,119.35101 0.0071,3.52794 H 42.585233 c -1.023064,0 -1.763712,0.77594 -1.763712,1.76372 v 10.58334 h -1.763718 v -10.58334 c 0,-0.98778 -0.776454,-1.72857 -1.764231,-1.72857 h -14.11069 v 12.31191 h -1.764231 v -10.58334 c 0,-0.98778 -0.775941,-1.76372 -1.763718,-1.76372 H 5.54365 v 3.52744 h 12.347565 v 1.76423 H 7.3078811 c -1.0230538,0 -1.7642311,0.77595 -1.7642311,1.76372 v 7.05538 c 0,1.02305 0.7411773,1.76424 1.7642311,1.76424 H 26.710317 v -12.34757 h 8.819616 v 12.34757 h 19.402955 c 0.987769,0 1.728576,-0.74119 1.728576,-1.76424 v -10.58333 h 1.777656 l 0.02117,10.58333 c 0,1.02305 0.740807,1.76424 1.728576,1.76424 H 74.32185 v -12.34757 h 8.819118 v 12.34757 H 109.5993 v -12.34757 h 7.05588 v -1.76372 c 0,-0.98778 -0.77645,-1.72857 -1.76421,-1.72857 h -8.81912 v 12.31191 H 91.960559 v -3.52795 h 12.347071 v -7.05539 c 0,-0.98778 -0.77594,-1.76372 -1.76374,-1.76372 H 90.196846 c -1.023038,0.0353 -1.764215,0.77594 -1.764215,1.76372 v 10.58334 h -1.763739 v -10.58334 c 0,-0.98778 -0.775917,-1.72857 -1.763712,-1.72857 H 74.321846 v -3.52795 h -3.527954 v 15.83986 h -1.785409 -7.055379 v -8.81962 h 7.055379 v -3.52744 h -7.055379 v -3.52794 z m -14.075622,7.05538 h 8.819092 v 8.81962 h -8.819092 z m 47.611031,0 h 8.819625 v 1.76423 h -8.819625 z m -82.888986,5.29167 h 8.819616 v 3.52795 H 9.071599 Z"
       id="path917"
       inkscape:connector-curvature="0"
       sodipodi:nodetypes="cccsccsscccssccccsssccccccscccccccccccsscccccsscsccssccccccccccccccccccccccccccc" />
    <path
       style="font-style:normal;font-variant:normal;font-weight:normal;font-stretch:normal;font-size:35.27777863px;line-height:1.25;font-family:STDevGen_1stMix;-inkscape-font-specification:'STDevGen_1stMix, Normal';font-variant-ligatures:normal;font-variant-caps:normal;font-variant-numeric:normal;font-feature-settings:normal;text-align:center;letter-spacing:0px;word-spacing:0px;writing-mode:lr-tb;text-anchor:middle;fill:#0080ff;fill-opacity:1;stroke:#000000;stroke-width:3.52777791;stroke-miterlimit:4;stroke-dasharray:none;paint-order:markers stroke fill"
       d="m 7.2722259,204.0175 c -0.987769,0.0353 -1.7285759,0.77647 -1.7285759,1.76424 v 12.34704 c 0,1.02304 0.7411773,1.76372 1.7642417,1.76372 H 17.891226 v 1.76424 H 5.54365 v 3.52742 h 14.111288 c 0.987769,0 1.728576,-0.74064 1.728576,-1.76371 v -15.87553 h 1.799379 v 0 h 12.347046 v 1.76371 H 24.946605 c -1.023064,0 -1.763712,0.77645 -1.763712,1.76425 v 7.0559 c 0,1.02304 0.740648,1.76372 1.763712,1.76372 H 44.34956 v -12.34705 h 3.527425 v 12.34705 h 3.527954 v -12.34705 h 3.527954 v 12.34705 h 21.194051 v -3.52743 H 63.779899 v -3.52795 h 12.347046 v -7.05538 c 0,-0.98777 -0.775944,-1.76424 -1.763713,-1.76424 H 62.015657 c -1.023064,0.0353 -1.763712,0.77647 -1.763712,1.76424 v 10.58333 h -1.791627 v -10.58333 c 0,-0.98777 -0.775943,-1.72858 -1.763712,-1.72858 h -15.875 v 1.72858 10.58333 h -1.763713 v -10.58333 c 0,-0.98777 -0.776446,-1.76424 -1.764242,-1.76424 z m 77.6877811,0 c -1.023065,0 -1.763713,0.77647 -1.763739,1.76424 v 12.34704 c 0,1.02304 0.740674,1.76372 1.763739,1.76372 h 12.347549 c 0.987797,0 1.728577,-0.74068 1.728577,-1.76372 V 207.54545 H 100.835 c 0,0.3175 0.0709,0.59965 0.17672,0.81132 l 5.78519,11.57139 h 3.91602 l 5.7857,-11.57139 c 0.10583,-0.21167 0.17624,-0.49382 0.17624,-0.81132 h 1.79935 v 10.58333 c 0,1.02304 0.7407,1.76372 1.76371,1.76372 h 19.40296 v -12.34705 h 7.05538 v -1.76371 c 0,-0.98777 -0.77592,-1.72858 -1.76372,-1.72858 h -8.81962 v 12.31191 h -14.11126 v -3.52795 h 12.34755 v -7.05538 c 0,-0.98777 -0.77645,-1.76424 -1.76421,-1.76424 h -19.4381 v 3.13986 l -4.40954,8.81962 -4.40957,-8.81962 v -3.13986 z m -75.8884025,3.52795 h 8.8196215 v 8.81962 H 9.0716045 Z m 54.7082945,0 h 8.819092 v 1.76371 h -8.819092 z m 22.944323,0 h 8.819118 v 8.81962 h -8.819118 z m 35.277448,0 h 8.8196 v 1.76371 h -8.8196 z m -95.291352,5.29167 h 8.819621 v 3.52795 h -8.819621 z"
       id="path961"
       inkscape:connector-curvature="0"
       sodipodi:nodetypes="csssccccsscccccsssccccccccccccccsscsccssccccsccccsssscccccsccsccccsscccccscccccccccccccccccccccccccccccccc" />
    <path
       style="font-style:normal;font-variant:normal;font-weight:normal;font-stretch:normal;font-size:35.27777863px;line-height:1.25;font-family:STDevGen_1stMix;-inkscape-font-specification:'STDevGen_1stMix, Normal';font-variant-ligatures:normal;font-variant-caps:normal;font-variant-numeric:normal;font-feature-settings:normal;text-align:center;letter-spacing:0px;word-spacing:0px;writing-mode:lr-tb;text-anchor:middle;fill:#0080ff;fill-opacity:1;stroke:#000000;stroke-width:3.52777791;stroke-miterlimit:4;stroke-dasharray:none;paint-order:markers stroke fill"
       d="m 17.890696,256.9347 v 3.52795 H 7.307362 c -1.023064,0 -1.763712,0.77594 -1.763712,1.76371 v 12.34705 c 0,1.02306 0.740648,1.76424 1.763712,1.76424 H 21.41865 v -12.34758 h 14.111288 v 1.76425 H 24.946605 c -1.023065,0 -1.764242,0.77594 -1.764242,1.76371 v 7.05538 c 0,1.02306 0.741177,1.76424 1.764242,1.76424 H 44.34903 v -12.34758 h 8.819621 v 12.34758 h 17.638713 v 1.76371 H 53.168651 v 3.52796 h 19.402955 c 0.987769,0 1.728576,-0.74118 1.728576,-1.76424 v -15.87501 h 1.798849 v 10.58334 c 0,1.02306 0.741177,1.76424 1.764243,1.76424 h 19.40242 v -12.34758 h 7.055906 v -1.76371 c 0,-0.98777 -0.77644,-1.72857 -1.76424,-1.72857 h -8.819086 v 12.31191 h -14.11129 v -3.52796 h 12.34705 v -7.05538 c 0,-0.98777 -0.77595,-1.76371 -1.76372,-1.76371 h -30.02142 c -0.987769,0.0353 -1.728576,0.77594 -1.728576,1.76371 v 10.58334 h -1.763713 v -10.58334 c 0,-0.98777 -0.776446,-1.72857 -1.764241,-1.72857 H 40.821605 v 12.31191 h -1.764242 v -10.58334 c 0,-0.98777 -0.775943,-1.76371 -1.763712,-1.76371 H 21.41865 v -3.52795 z m -8.819092,7.05537 h 8.819092 v 8.81963 H 9.071604 Z m 52.916668,0 h 8.819092 v 8.81963 h -8.819092 z m 17.638712,0 h 8.81962 v 1.76425 h -8.81962 z m -52.916667,5.29167 h 8.819621 v 3.52796 h -8.819621 z"
       id="path1000"
       inkscape:connector-curvature="0"
       sodipodi:nodetypes="ccssssccccssscccccccccssccsccccsscccccsccsccsscccscccccccccccccccccccccccc" />
    <path
       style="font-style:normal;font-variant:normal;font-weight:normal;font-stretch:normal;font-size:35.27777863px;line-height:1.25;font-family:STDevGen_1stMix;-inkscape-font-specification:'STDevGen_1stMix, Normal';font-variant-ligatures:normal;font-variant-caps:normal;font-variant-numeric:normal;font-feature-settings:normal;text-align:center;letter-spacing:0px;word-spacing:0px;writing-mode:lr-tb;text-anchor:middle;fill:#0080ff;fill-opacity:1;stroke:#000000;stroke-width:3.52777791;stroke-miterlimit:4;stroke-dasharray:none;paint-order:markers stroke fill"
       d="m 23.147228,50.559678 0.007,3.527434 H 7.307363 c -1.023065,0 -1.763713,0.776456 -1.763713,1.764233 v 5.291666 c 0,1.023056 0.740648,1.763718 1.763713,1.763718 h 10.583333 v 3.527949 H 5.54365 v 3.527435 h 14.110758 c 0.98777,0 1.72858,-0.740661 1.72858,-1.763718 v -7.055384 c 0,-0.987777 -0.74081,-1.764231 -1.72858,-1.764231 H 9.071075 v -1.763718 h 14.090093 l 0.0212,10.583333 c 0,1.023057 0.74081,1.763718 1.72857,1.763718 h 8.81963 v -3.527435 h -7.05591 v -8.819616 h 21.18836 v 1.763718 h -10.58333 c -1.02304,0 -1.76372,0.776454 -1.76372,1.764231 v 7.055384 c 0,1.023057 0.74068,1.763718 1.76372,1.763718 h 28.22207 v 1.764233 h -12.34707 v 3.52743 h 14.11128 c 0.98777,0 1.72858,-0.74066 1.72858,-1.76371 v -3.527953 h 17.67388 v -3.527435 h -12.34708 v -3.527949 h 12.34708 v -7.055384 c 0,-0.987777 -0.77595,-1.764233 -1.76374,-1.764233 h -12.34708 c -1.02304,0.03528 -1.76421,0.776456 -1.76421,1.764233 v 10.583333 h -1.79888 V 54.087112 h -14.11126 c -0.9878,0.03528 -1.72858,0.776456 -1.7286,1.764233 v 10.583333 h -1.76372 V 55.851345 c 0,-0.987777 -0.77644,-1.764233 -1.76421,-1.764233 h -22.9521 v -3.527434 z m 33.53541,7.055384 h 8.81912 v 8.819616 h -8.81912 z m 17.63871,0 h 8.81962 v 1.763718 h -8.81962 z m -35.27793,5.291667 h 8.8196 v 3.527949 h -8.8196 z"
       id="path1032"
       inkscape:connector-curvature="0"
       sodipodi:nodetypes="cccsssccccssssccccsccccccssscccccssccccccsscscccccccsccccccccccccccccccc" />
    <path
       style="font-style:normal;font-variant:normal;font-weight:normal;font-stretch:normal;font-size:35.27777863px;line-height:1.25;font-family:STDevGen_1stMix;-inkscape-font-specification:'STDevGen_1stMix, Normal';font-variant-ligatures:normal;font-variant-caps:normal;font-variant-numeric:normal;font-feature-settings:normal;text-align:center;letter-spacing:0px;word-spacing:0px;writing-mode:lr-tb;text-anchor:middle;fill:#ffffff;fill-opacity:1;stroke:#000000;stroke-width:35.27777863;stroke-miterlimit:4;stroke-dasharray:none;paint-order:markers stroke fill"
       d="m 1504.8527,1004.8218 c -10.2305,0.353 -17.6423,7.7645 -17.6423,17.6423 v 176.3871 h 35.2795 v -105.8333 h 52.9166 v -35.2795 h -52.9166 v -17.6371 h 52.9166 v -35.2795 z m 494.3005,0.357 v 193.6729 h 35.2795 v -176.3872 c 0,-9.8778 -7.7646,-17.2858 -17.6423,-17.2858 z m -176.3871,34.9229 v 35.2794 h 123.4704 v 17.6372 h -105.8332 c -10.2306,0 -17.6372,7.7594 -17.6372,17.6372 v 53.2732 h -17.6423 v -106.1899 c 0,-9.8778 -7.7594,-17.2858 -17.6372,-17.2858 h -141.1128 v 123.4757 h -17.7767 v -106.1899 c 0,-9.8778 -7.7594,-17.2858 -17.6372,-17.2858 h -17.6372 v 158.3982 h 88.3306 v -123.4705 h 88.1961 v 123.4705 h 211.6666 v -141.1128 c 0,-9.8778 -7.7645,-17.6371 -17.6423,-17.6371 z m 35.2743,88.1961 h 88.1961 v 35.2744 h -88.1961 z"
       id="path849"
       inkscape:connector-curvature="0"
       sodipodi:nodetypes="cscccccccccccccsscccccssccsscccsscccccccsscccccc"
       inkscape:export-xdpi="57.646"
       inkscape:export-ydpi="57.646" />
    <path
       style="font-style:normal;font-variant:normal;font-weight:normal;font-stretch:normal;font-size:35.27777863px;line-height:1.25;font-family:STDevGen_1stMix;-inkscape-font-specification:'STDevGen_1stMix, Normal';font-variant-ligatures:normal;font-variant-caps:normal;font-variant-numeric:normal;font-feature-settings:normal;text-align:center;letter-spacing:0px;word-spacing:0px;writing-mode:lr-tb;text-anchor:middle;fill:#0080ff;fill-opacity:1;stroke:#000000;stroke-width:14.11111139;stroke-miterlimit:4;stroke-dasharray:none;paint-order:markers stroke fill"
       d="m 499.40457,1121.2415 0.028,14.1097 h -63.3875 c -4.0922,0 -7.0548,3.1059 -7.0548,7.057 v 21.1666 c 0,4.0923 2.9626,7.0549 7.0548,7.0549 h 42.3334 v 14.1118 h -49.3882 v 14.1097 h 56.443 c 3.9511,0 6.9143,-2.9626 6.9143,-7.0548 v -28.2216 c 0,-3.951 -2.9632,-7.0569 -6.9143,-7.0569 h -42.3333 v -7.0549 h 56.3603 l 0.085,42.3334 c 0,4.0922 2.9633,7.0548 6.9143,7.0548 h 35.2785 v -14.1097 h -28.2236 v -35.2785 h 84.7534 v 7.0549 h -42.3333 c -4.0921,0 -7.0549,3.1059 -7.0549,7.0569 v 28.2216 c 0,4.0922 2.9628,7.0548 7.0549,7.0548 h 112.8883 v 7.057 h -49.3883 v 14.1097 h 56.4451 c 3.9511,0 6.9144,-2.9626 6.9144,-7.0548 v -14.1119 h 70.6955 v -14.1097 h -49.3883 v -14.1118 h 49.3883 v -28.2215 c 0,-3.9511 -3.1038,-7.057 -7.055,-7.057 h -49.3883 c -4.0922,0.1412 -7.0568,3.1059 -7.0568,7.057 v 42.3333 h -7.1956 v -49.3903 h -56.445 c -3.9512,0.1412 -6.9143,3.1059 -6.9144,7.057 v 42.3333 h -7.0549 v -42.3333 c 0,-3.9511 -3.1057,-7.057 -7.0568,-7.057 h -91.8084 v -14.1097 z m 134.1416,28.2215 h 35.2765 v 35.2785 h -35.2765 z m 70.5549,0 h 35.2784 v 7.0549 h -35.2784 z m -141.1118,21.1667 h 35.2784 v 14.1118 h -35.2784 z"
       id="path851"
       inkscape:connector-curvature="0"
       sodipodi:nodetypes="cccsssccccssssccccsccccccssscccccssccccccsscscccccccsccccccccccccccccccc"
       inkscape:export-xdpi="57.60957"
       inkscape:export-ydpi="57.60957" />
    <path
       sodipodi:nodetypes="ccccccccscccccccsscsscccccccccccccccccccsssscscccccccccccccccccccc"
       inkscape:connector-curvature="0"
       id="path853"
       d="m 2456.9949,1004.8269 0.07,35.2744 h -52.6325 v 26.4583 l -44.1005,31.3986 -44.0955,-31.3986 v -26.4583 h -35.2795 v 35.2795 c 0,7.0555 3.1784,11.6419 7.0589,14.4642 l 41.6254,29.6312 -41.6254,29.9878 c -3.8805,2.8222 -7.0589,7.4102 -7.0589,14.1128 h -141.1075 v -35.2794 h 123.4705 v -70.5538 c 0,-9.8778 -7.7594,-17.6423 -17.6372,-17.6423 h -123.4756 c -10.2306,0.353 -17.6372,7.7645 -17.6372,17.6423 v 123.4704 c 0,10.2306 7.4066,17.6372 17.6372,17.6372 h 194.0295 v -26.1018 l 44.0955,-31.3986 44.1006,31.3986 v 26.1018 h 35.2744 v -35.2744 c -0.353,-6.7026 -3.5247,-11.2906 -7.4052,-14.1128 l -41.6306,-29.9878 41.6306,-29.6312 c 3.8805,-2.8223 7.0538,-7.4087 7.0538,-14.4642 h 17.7819 l 0.212,105.8332 c 0,10.2306 7.408,17.6372 17.2857,17.6372 h 141.3248 v -123.4704 h 211.5271 v 17.6371 h -105.8334 c -10.2306,0 -17.6371,7.7645 -17.6371,17.6423 v 70.5538 c 0,10.2306 7.4065,17.6372 17.6371,17.6372 h 141.1129 v -141.1076 c 0,-9.8778 -7.7594,-17.6423 -17.6371,-17.6423 l -264.449,0.357 v 123.1189 h -88.4081 v -88.196 h 70.5538 v -35.2795 h -70.5538 v -35.2744 z m -317.1435,70.5539 h 88.191 v 17.6371 h -88.191 z m 599.4467,52.9166 h 88.1909 v 35.2794 h -88.1909 z"
       style="font-style:normal;font-variant:normal;font-weight:normal;font-stretch:normal;font-size:35.27777863px;line-height:1.25;font-family:STDevGen_1stMix;-inkscape-font-specification:'STDevGen_1stMix, Normal';font-variant-ligatures:normal;font-variant-caps:normal;font-variant-numeric:normal;font-feature-settings:normal;text-align:center;letter-spacing:0px;word-spacing:0px;writing-mode:lr-tb;text-anchor:middle;fill:#ff0000;fill-opacity:1;stroke:#000000;stroke-width:35.27777863;stroke-miterlimit:4;stroke-dasharray:none;paint-order:markers stroke fill"
       inkscape:export-xdpi="57.619984"
       inkscape:export-ydpi="57.619984" />
    <path
       sodipodi:nodetypes="cccsccsscccssccccsssccccccscccccccccccsscccccsscsccssccccccccccccccccccccccccccc"
       inkscape:connector-curvature="0"
       id="path855"
       d="m 194.18809,1140.6424 0.021,10.5838 h -47.54115 c -3.06918,0 -5.29113,2.3278 -5.29113,5.2911 v 31.7501 h -5.29116 v -31.7501 c 0,-2.9633 -2.32935,-5.1857 -5.29269,-5.1857 H 88.460893 v 36.9358 h -5.29269 v -31.7501 c 0,-2.9633 -2.32782,-5.2911 -5.29116,-5.2911 h -42.33384 v 10.5823 h 37.04268 v 5.2927 h -31.74999 c -3.06915,0 -5.29269,2.3278 -5.29269,5.2912 v 21.1661 c 0,3.0691 2.22354,5.2927 5.29269,5.2927 h 58.20732 v -37.0427 h 26.458827 v 37.0427 h 58.20888 c 2.96331,0 5.18571,-2.2236 5.18571,-5.2927 v -31.75 h 5.33298 l 0.0636,31.75 c 0,3.0691 2.22243,5.2927 5.18574,5.2927 h 42.39894 v -37.0427 h 26.45736 v 37.0427 h 79.37502 v -37.0427 h 21.1676 v -5.2912 c 0,-2.9633 -2.3293,-5.1857 -5.2926,-5.1857 h -26.4574 v 36.9358 h -42.33385 v -10.5839 h 37.04125 v -21.1662 c 0,-2.9633 -2.3279,-5.2911 -5.2913,-5.2911 h -37.04108 c -3.06912,0.1059 -5.29266,2.3278 -5.29266,5.2911 v 31.7501 h -5.29122 v -31.7501 c 0,-2.9633 -2.32776,-5.1857 -5.29113,-5.1857 h -31.74999 v -10.5838 h -10.58388 v 47.5196 h -5.35623 -21.16614 v -26.4589 h 21.16614 v -10.5823 h -21.16614 v -10.5838 z m -42.22689,21.1661 h 26.4573 v 26.4589 h -26.4573 z m 142.83309,0 h 26.45888 v 5.2927 h -26.45888 z m -248.666937,15.875 h 26.45883 v 10.5839 h -26.45883 z"
       style="font-style:normal;font-variant:normal;font-weight:normal;font-stretch:normal;font-size:35.27777863px;line-height:1.25;font-family:STDevGen_1stMix;-inkscape-font-specification:'STDevGen_1stMix, Normal';font-variant-ligatures:normal;font-variant-caps:normal;font-variant-numeric:normal;font-feature-settings:normal;text-align:center;letter-spacing:0px;word-spacing:0px;writing-mode:lr-tb;text-anchor:middle;fill:#ffffff;fill-opacity:1;stroke:#000000;stroke-width:10.58333397;stroke-miterlimit:4;stroke-dasharray:none;paint-order:markers stroke fill"
       inkscape:export-xdpi="57.606754"
       inkscape:export-ydpi="57.606754" />
    <path
       sodipodi:nodetypes="ccssssccccssscccccccccssccsccccsscccccsccsccsscccscccccccccccccccccccccccc"
       inkscape:connector-curvature="0"
       id="path857"
       d="m 3057.0717,1004.8217 v 35.2795 h -105.8334 c -10.2306,0 -17.6371,7.7594 -17.6371,17.6371 v 123.4705 c 0,10.2306 7.4065,17.6424 17.6371,17.6424 h 141.1129 v -123.4758 h 141.1129 v 17.6425 h -105.8334 c -10.2306,0 -17.6424,7.7594 -17.6424,17.6371 v 70.5538 c 0,10.2306 7.4118,17.6424 17.6424,17.6424 h 194.0243 v -123.4758 h 88.1961 v 123.4758 h 176.3871 v 17.6371 h -176.3871 v 35.2796 h 194.0296 c 9.8776,0 17.2857,-7.4118 17.2857,-17.6424 v -158.7501 h 17.9885 v 105.8334 c 0,10.2306 7.4118,17.6424 17.6424,17.6424 h 194.0242 v -123.4758 h 70.5591 v -17.6371 c 0,-9.8777 -7.7644,-17.2857 -17.6424,-17.2857 h -88.1909 v 123.1191 h -141.1129 v -35.2796 h 123.4705 v -70.5538 c 0,-9.8777 -7.7595,-17.6371 -17.6372,-17.6371 h -300.2142 c -9.8777,0.353 -17.2857,7.7594 -17.2857,17.6371 v 105.8334 h -17.6372 v -105.8334 c 0,-9.8777 -7.7644,-17.2857 -17.6424,-17.2857 h -141.1075 v 123.1191 h -17.6424 v -105.8334 c 0,-9.8777 -7.7594,-17.6371 -17.6371,-17.6371 h -158.75 v -35.2795 z m -88.191,70.5537 h 88.191 v 88.1963 h -88.191 z m 529.1666,0 h 88.1909 v 88.1963 h -88.1909 z m 176.3871,0 h 88.1962 v 17.6425 h -88.1962 z m -529.1665,52.9167 h 88.1962 v 35.2796 h -88.1962 z"
       style="font-style:normal;font-variant:normal;font-weight:normal;font-stretch:normal;font-size:35.27777863px;line-height:1.25;font-family:STDevGen_1stMix;-inkscape-font-specification:'STDevGen_1stMix, Normal';font-variant-ligatures:normal;font-variant-caps:normal;font-variant-numeric:normal;font-feature-settings:normal;text-align:center;letter-spacing:0px;word-spacing:0px;writing-mode:lr-tb;text-anchor:middle;fill:#ff0000;fill-opacity:1;stroke:#000000;stroke-width:35.27777863;stroke-miterlimit:4;stroke-dasharray:none;paint-order:markers stroke fill"
       inkscape:export-xdpi="57.599998"
       inkscape:export-ydpi="57.599998" />
    <path
       sodipodi:nodetypes="csssccccsscccccsssccccccccccccccsscsccssccccsccccsssscccccsccsccccsscccccscccccccccccccccccccccccccccccccc"
       inkscape:connector-curvature="0"
       id="path859"
       d="m 3991.5761,1040.1012 c -9.878,0.353 -17.286,7.7647 -17.286,17.6424 v 123.4704 c 0,10.2304 7.412,17.6372 17.643,17.6372 h 105.833 v 17.6424 h -123.476 v 35.2742 h 141.113 c 9.878,0 17.286,-7.4064 17.286,-17.6371 v -158.7553 h 17.994 v 0 h 123.47 v 17.6371 h -105.833 c -10.231,0 -17.637,7.7645 -17.637,17.6425 v 70.559 c 0,10.2304 7.406,17.6372 17.637,17.6372 h 194.029 v -123.4705 h 35.275 v 123.4705 h 35.279 v -123.4705 h 35.28 v 123.4705 h 211.94 v -35.2743 h -123.47 v -35.2795 h 123.47 v -70.5538 c 0,-9.8777 -7.759,-17.6424 -17.637,-17.6424 h -123.476 c -10.23,0.353 -17.637,7.7647 -17.637,17.6424 v 105.8333 h -17.916 v -105.8333 c 0,-9.8777 -7.759,-17.2858 -17.637,-17.2858 h -158.75 v 17.2858 105.8333 h -17.637 v -105.8333 c 0,-9.8777 -7.765,-17.6424 -17.643,-17.6424 z m 776.8779,0 c -10.231,0 -17.637,7.7647 -17.638,17.6424 v 123.4704 c 0,10.2304 7.407,17.6372 17.638,17.6372 h 123.475 c 9.878,0 17.286,-7.4068 17.286,-17.6372 v -105.8333 h 17.989 c 0,3.175 0.71,5.9965 1.767,8.1132 l 57.852,115.7139 h 39.16 l 57.857,-115.7139 c 1.058,-2.1167 1.762,-4.9382 1.762,-8.1132 h 17.994 v 105.8333 c 0,10.2304 7.407,17.6372 17.637,17.6372 h 194.03 v -123.4705 h 70.553 v -17.6371 c 0,-9.8777 -7.759,-17.2858 -17.637,-17.2858 h -88.196 v 123.1191 H 5138.87 v -35.2795 h 123.476 v -70.5538 c 0,-9.8777 -7.765,-17.6424 -17.642,-17.6424 h -194.381 v 31.3986 l -44.096,88.1962 -44.095,-88.1962 v -31.3986 z m -758.8839,35.2795 h 88.196 v 88.1962 h -88.196 z m 547.083,0 h 88.191 v 17.6371 h -88.191 z m 229.4429,0 h 88.191 v 88.1962 h -88.191 z m 352.774,0 h 88.196 v 17.6371 h -88.196 z m -952.9129,52.9167 h 88.196 v 35.2795 h -88.196 z"
       style="font-style:normal;font-variant:normal;font-weight:normal;font-stretch:normal;font-size:35.27777863px;line-height:1.25;font-family:STDevGen_1stMix;-inkscape-font-specification:'STDevGen_1stMix, Normal';font-variant-ligatures:normal;font-variant-caps:normal;font-variant-numeric:normal;font-feature-settings:normal;text-align:center;letter-spacing:0px;word-spacing:0px;writing-mode:lr-tb;text-anchor:middle;fill:#ffffff;fill-opacity:1;stroke:#000000;stroke-width:35.27777863;stroke-miterlimit:4;stroke-dasharray:none;paint-order:markers stroke fill" />
    <g
       id="g928"
       transform="translate(8.2097416,-908.71961)"
       inkscape:export-xdpi="57.599998"
       inkscape:export-ydpi="57.599998">
      <g
         aria-label="1"
         style="font-style:normal;font-variant:normal;font-weight:normal;font-stretch:normal;font-size:529.16668701px;line-height:1.25;font-family:STDevGen_1stMix;-inkscape-font-specification:'STDevGen_1stMix, Normal';font-variant-ligatures:normal;font-variant-caps:normal;font-variant-numeric:normal;font-feature-settings:normal;text-align:start;letter-spacing:0px;word-spacing:0px;writing-mode:lr-tb;text-anchor:start;fill:#ffffff;fill-opacity:1;stroke:#000000;stroke-width:35.27777863;stroke-miterlimit:4;stroke-dasharray:none;paint-order:stroke markers fill"
         id="text867">
        <path
           d="m 1937.6119,974.53668 h -79.375 v 52.38752 h 52.9167 v 185.2083 h -52.9167 v 52.9167 h 158.75 v -52.9167 h -52.9167 v -211.6666 c 0,-14.81672 -11.6416,-25.92922 -26.4583,-25.92922 z"
           style="font-style:normal;font-variant:normal;font-weight:normal;font-stretch:normal;font-size:529.16668701px;font-family:STDevGen_1stMix;-inkscape-font-specification:'STDevGen_1stMix, Normal';font-variant-ligatures:normal;font-variant-caps:normal;font-variant-numeric:normal;font-feature-settings:normal;text-align:start;writing-mode:lr-tb;text-anchor:start;fill:#ffffff;stroke:#000000;stroke-width:35.27777863;stroke-miterlimit:4;stroke-dasharray:none;paint-order:stroke markers fill"
           id="path874" />
      </g>
      <rect
         y="943.40411"
         x="1796.5007"
         height="352.77777"
         width="282.22223"
         id="rect905"
         style="opacity:0.29720022;fill:none;fill-opacity:1;stroke:none;stroke-width:30.08498764;stroke-miterlimit:4;stroke-dasharray:none;stroke-dashoffset:0;paint-order:stroke markers fill" />
    </g>
    <g
       id="g933"
       transform="translate(-1.8529784,-908.71961)"
       inkscape:export-xdpi="57.599998"
       inkscape:export-ydpi="57.599998">
      <g
         aria-label="2"
         style="font-style:normal;font-variant:normal;font-weight:normal;font-stretch:normal;font-size:529.16668701px;line-height:1.25;font-family:STDevGen_1stMix;-inkscape-font-specification:'STDevGen_1stMix, Normal';font-variant-ligatures:normal;font-variant-caps:normal;font-variant-numeric:normal;font-feature-settings:normal;text-align:start;letter-spacing:0px;word-spacing:0px;writing-mode:lr-tb;text-anchor:start;fill:#ffffff;fill-opacity:1;stroke:#000000;stroke-width:35.27777863;stroke-miterlimit:4;stroke-dasharray:none;paint-order:stroke markers fill"
         id="text871">
        <path
           d="m 2159.3413,1000.4746 v 26.4584 h 158.75 v 37.0416 l -144.4625,71.9667 c -7.9375,3.7042 -14.2875,11.6417 -14.2875,23.2833 v 105.8334 h 211.6667 v -52.9167 h -158.75 v -36.5125 l 143.9333,-71.9667 c 7.9375,-3.7041 14.8167,-11.6416 14.8167,-23.2833 v -79.375 c 0,-15.34583 -11.6417,-26.45833 -26.4584,-26.45833 h -158.75 c -15.3458,-0.52916 -26.4583,11.1125 -26.4583,25.92913 z"
           style="font-style:normal;font-variant:normal;font-weight:normal;font-stretch:normal;font-size:529.16668701px;font-family:STDevGen_1stMix;-inkscape-font-specification:'STDevGen_1stMix, Normal';font-variant-ligatures:normal;font-variant-caps:normal;font-variant-numeric:normal;font-feature-settings:normal;text-align:start;writing-mode:lr-tb;text-anchor:start;fill:#ffffff;stroke:#000000;stroke-width:35.27777863;stroke-miterlimit:4;stroke-dasharray:none;paint-order:stroke markers fill"
           id="path877" />
      </g>
      <rect
         style="opacity:0.29720022;fill:none;fill-opacity:1;stroke:none;stroke-width:30.08498764;stroke-miterlimit:4;stroke-dasharray:none;stroke-dashoffset:0;paint-order:stroke markers fill"
         id="rect907"
         width="282.22223"
         height="352.77777"
         x="2124.0635"
         y="943.40411" />
    </g>
    <g
       id="g938"
       transform="translate(-18.600768,-908.71961)"
       inkscape:export-xdpi="57.599998"
       inkscape:export-ydpi="57.599998">
      <g
         aria-label="3"
         style="font-style:normal;font-variant:normal;font-weight:normal;font-stretch:normal;font-size:529.16668701px;line-height:1.25;font-family:STDevGen_1stMix;-inkscape-font-specification:'STDevGen_1stMix, Normal';font-variant-ligatures:normal;font-variant-caps:normal;font-variant-numeric:normal;font-feature-settings:normal;text-align:start;letter-spacing:0px;word-spacing:0px;writing-mode:lr-tb;text-anchor:start;fill:#ffffff;fill-opacity:1;stroke:#000000;stroke-width:35.27777863;stroke-miterlimit:4;stroke-dasharray:none;paint-order:stroke markers fill"
         id="text875">
        <path
           d="m 2493.8538,974.27216 v 52.38754 h 147.6375 l 11.1125,11.1125 v 31.2208 l -11.1125,10.5833 h -121.1792 v 52.9167 h 121.1792 l 11.1125,11.1125 v 57.6792 l -11.1125,11.1125 h -147.6375 v 52.9166 h 158.75 c 7.9375,0 14.2875,-3.7041 18.5208,-7.9375 l 26.4583,-26.4583 c 4.2334,-4.2333 7.4084,-10.5833 7.4084,-18.5208 v -79.375 c 0,-8.4667 -3.175,-14.8167 -7.4084,-19.05 l -7.9375,-7.4084 7.9375,-7.9375 c 4.2334,-4.2333 7.4084,-10.5833 7.4084,-18.5208 v -52.9167 c 0,-8.4666 -3.175,-14.8166 -7.4084,-19.05 l -26.4583,-26.45831 c -4.2333,-4.23333 -10.5833,-7.40833 -18.5208,-7.40833 z"
           style="font-style:normal;font-variant:normal;font-weight:normal;font-stretch:normal;font-size:529.16668701px;font-family:STDevGen_1stMix;-inkscape-font-specification:'STDevGen_1stMix, Normal';font-variant-ligatures:normal;font-variant-caps:normal;font-variant-numeric:normal;font-feature-settings:normal;text-align:start;writing-mode:lr-tb;text-anchor:start;fill:#ffffff;stroke:#000000;stroke-width:35.27777863;stroke-miterlimit:4;stroke-dasharray:none;paint-order:stroke markers fill"
           id="path880" />
      </g>
      <rect
         y="943.40411"
         x="2458.3113"
         height="352.77777"
         width="282.22223"
         id="rect909"
         style="opacity:0.29720022;fill:none;fill-opacity:1;stroke:none;stroke-width:30.08498764;stroke-miterlimit:4;stroke-dasharray:none;stroke-dashoffset:0;paint-order:stroke markers fill" />
    </g>
    <g
       id="g943"
       transform="translate(-28.663488,-902.03467)"
       inkscape:export-xdpi="57.599998"
       inkscape:export-ydpi="57.599998">
      <g
         aria-label="4"
         style="font-style:normal;font-variant:normal;font-weight:normal;font-stretch:normal;font-size:529.16668701px;line-height:1.25;font-family:STDevGen_1stMix;-inkscape-font-specification:'STDevGen_1stMix, Normal';font-variant-ligatures:normal;font-variant-caps:normal;font-variant-numeric:normal;font-feature-settings:normal;text-align:start;letter-spacing:0px;word-spacing:0px;writing-mode:lr-tb;text-anchor:start;fill:#ffffff;fill-opacity:1;stroke:#000000;stroke-width:35.27777863;stroke-miterlimit:4;stroke-dasharray:none;paint-order:stroke markers fill"
         id="text879">
        <path
           d="m 3006.3602,967.85175 h -26.4583 v 158.22085 h -105.8334 v -105.8334 h -52.9166 v 158.7501 h 158.75 v 79.375 h 52.9166 V 993.78091 c 0,-14.81666 -11.6416,-25.92916 -26.4583,-25.92916 z"
           style="font-style:normal;font-variant:normal;font-weight:normal;font-stretch:normal;font-size:529.16668701px;font-family:STDevGen_1stMix;-inkscape-font-specification:'STDevGen_1stMix, Normal';font-variant-ligatures:normal;font-variant-caps:normal;font-variant-numeric:normal;font-feature-settings:normal;text-align:start;writing-mode:lr-tb;text-anchor:start;fill:#ffffff;stroke:#000000;stroke-width:35.27777863;stroke-miterlimit:4;stroke-dasharray:none;paint-order:stroke markers fill"
           id="path883" />
      </g>
      <rect
         style="opacity:0.29720022;fill:none;fill-opacity:1;stroke:none;stroke-width:30.08498764;stroke-miterlimit:4;stroke-dasharray:none;stroke-dashoffset:0;paint-order:stroke markers fill"
         id="rect911"
         width="282.22223"
         height="352.77777"
         x="2785.874"
         y="936.71918" />
    </g>
    <g
       id="g948"
       transform="translate(-1686.3909,-480.55438)"
       inkscape:export-xdpi="57.599998"
       inkscape:export-ydpi="57.599998">
      <g
         aria-label="5"
         style="font-style:normal;font-variant:normal;font-weight:normal;font-stretch:normal;font-size:529.16668701px;line-height:1.25;font-family:STDevGen_1stMix;-inkscape-font-specification:'STDevGen_1stMix, Normal';font-variant-ligatures:normal;font-variant-caps:normal;font-variant-numeric:normal;font-feature-settings:normal;text-align:start;letter-spacing:0px;word-spacing:0px;writing-mode:lr-tb;text-anchor:start;fill:#ffffff;fill-opacity:1;stroke:#000000;stroke-width:35.27777863;stroke-miterlimit:4;stroke-dasharray:none;paint-order:stroke markers fill"
         id="text883">
        <path
           d="m 3420.0167,1199.0104 v -132.2917 c 0,-15.3458 -11.1125,-26.4583 -25.9292,-26.4583 h -132.2917 v -52.91667 h 158.75 v -52.91667 h -211.6666 v 158.22084 h 158.75 v 79.375 h -158.75 v 52.9167 h 185.2083 c 14.8167,0 25.9292,-11.1125 25.9292,-25.9292 z"
           style="font-style:normal;font-variant:normal;font-weight:normal;font-stretch:normal;font-size:529.16668701px;font-family:STDevGen_1stMix;-inkscape-font-specification:'STDevGen_1stMix, Normal';font-variant-ligatures:normal;font-variant-caps:normal;font-variant-numeric:normal;font-feature-settings:normal;text-align:start;writing-mode:lr-tb;text-anchor:start;fill:#ffffff;stroke:#000000;stroke-width:35.27777863;stroke-miterlimit:4;stroke-dasharray:none;paint-order:stroke markers fill"
           id="path886" />
      </g>
      <rect
         y="903.29443"
         x="3173.6013"
         height="352.77777"
         width="282.22223"
         id="rect913"
         style="opacity:0.29720022;fill:none;fill-opacity:1;stroke:none;stroke-width:30.08498764;stroke-miterlimit:4;stroke-dasharray:none;stroke-dashoffset:0;paint-order:stroke markers fill" />
    </g>
    <g
       id="g953"
       transform="translate(-5.1601725,-961.87103)"
       inkscape:export-xdpi="57.599998"
       inkscape:export-ydpi="57.599998">
      <g
         aria-label="6"
         style="font-style:normal;font-variant:normal;font-weight:normal;font-stretch:normal;font-size:529.16668701px;line-height:1.25;font-family:STDevGen_1stMix;-inkscape-font-specification:'STDevGen_1stMix, Normal';font-variant-ligatures:normal;font-variant-caps:normal;font-variant-numeric:normal;font-feature-settings:normal;text-align:start;letter-spacing:0px;word-spacing:0px;writing-mode:lr-tb;text-anchor:start;fill:#ffffff;fill-opacity:1;stroke:#000000;stroke-width:35.27777863;stroke-miterlimit:4;stroke-dasharray:none;paint-order:stroke markers fill"
         id="text887">
        <path
           d="m 1845.1484,1441.6815 v 238.1251 c 0,15.3458 11.1125,26.4583 26.4584,26.4583 h 158.75 c 14.8166,0 25.9291,-11.1125 25.9291,-26.4583 v -132.2917 c 0,-14.8167 -11.1125,-26.4583 -25.9291,-26.4583 h -132.2917 v -52.9167 h 158.75 v -26.4584 c 0,-14.8166 -11.6417,-25.9291 -26.4583,-25.9291 h -158.75 c -15.3459,-0.5292 -26.4584,11.1125 -26.4584,25.9291 z m 52.9167,132.2917 h 105.8333 v 79.375 h -105.8333 z"
           style="font-style:normal;font-variant:normal;font-weight:normal;font-stretch:normal;font-size:529.16668701px;font-family:STDevGen_1stMix;-inkscape-font-specification:'STDevGen_1stMix, Normal';font-variant-ligatures:normal;font-variant-caps:normal;font-variant-numeric:normal;font-feature-settings:normal;text-align:start;writing-mode:lr-tb;text-anchor:start;fill:#ffffff;stroke:#000000;stroke-width:35.27777863;stroke-miterlimit:4;stroke-dasharray:none;paint-order:stroke markers fill"
           id="path889" />
      </g>
      <rect
         style="opacity:0.29720022;fill:none;fill-opacity:1;stroke:none;stroke-width:30.08498764;stroke-miterlimit:4;stroke-dasharray:none;stroke-dashoffset:0;paint-order:stroke markers fill"
         id="rect915"
         width="282.22223"
         height="352.77777"
         x="1809.8706"
         y="1384.6111" />
    </g>
    <g
       id="g958"
       transform="translate(-15.222897,-961.87103)"
       inkscape:export-xdpi="57.599998"
       inkscape:export-ydpi="57.599998">
      <g
         aria-label="7"
         style="font-style:normal;font-variant:normal;font-weight:normal;font-stretch:normal;font-size:529.16668701px;line-height:1.25;font-family:STDevGen_1stMix;-inkscape-font-specification:'STDevGen_1stMix, Normal';font-variant-ligatures:normal;font-variant-caps:normal;font-variant-numeric:normal;font-feature-settings:normal;text-align:start;letter-spacing:0px;word-spacing:0px;writing-mode:lr-tb;text-anchor:start;fill:#ffffff;fill-opacity:1;stroke:#000000;stroke-width:35.27777863;stroke-miterlimit:4;stroke-dasharray:none;paint-order:stroke markers fill"
         id="text891">
        <path
           d="m 2172.7112,1415.4791 v 52.9166 h 151.8708 l -146.5792,195.7917 c -3.175,4.2334 -5.2916,9.525 -5.2916,15.875 v 26.4584 h 52.9167 v -17.4625 l 153.4583,-204.7876 c 2.6458,-3.7041 5.2917,-8.9958 5.2917,-15.875 v -52.9166 z"
           style="font-style:normal;font-variant:normal;font-weight:normal;font-stretch:normal;font-size:529.16668701px;font-family:STDevGen_1stMix;-inkscape-font-specification:'STDevGen_1stMix, Normal';font-variant-ligatures:normal;font-variant-caps:normal;font-variant-numeric:normal;font-feature-settings:normal;text-align:start;writing-mode:lr-tb;text-anchor:start;fill:#ffffff;stroke:#000000;stroke-width:35.27777863;stroke-miterlimit:4;stroke-dasharray:none;paint-order:stroke markers fill"
           id="path892" />
      </g>
      <rect
         y="1384.6111"
         x="2137.4333"
         height="352.77777"
         width="282.22223"
         id="rect917"
         style="opacity:0.29720022;fill:none;fill-opacity:1;stroke:none;stroke-width:30.08498764;stroke-miterlimit:4;stroke-dasharray:none;stroke-dashoffset:0;paint-order:stroke markers fill" />
    </g>
    <g
       id="g963"
       transform="translate(-31.970679,-961.87103)"
       inkscape:export-xdpi="57.599998"
       inkscape:export-ydpi="57.599998">
      <g
         aria-label="8"
         style="font-style:normal;font-variant:normal;font-weight:normal;font-stretch:normal;font-size:529.16668701px;line-height:1.25;font-family:STDevGen_1stMix;-inkscape-font-specification:'STDevGen_1stMix, Normal';font-variant-ligatures:normal;font-variant-caps:normal;font-variant-numeric:normal;font-feature-settings:normal;text-align:start;letter-spacing:0px;word-spacing:0px;writing-mode:lr-tb;text-anchor:start;fill:#ffffff;fill-opacity:1;stroke:#000000;stroke-width:35.27777863;stroke-miterlimit:4;stroke-dasharray:none;paint-order:stroke markers fill"
         id="text895">
        <path
           d="m 2560.1403,1415.4791 c -8.4667,0 -14.8167,3.7041 -19.05,7.9375 l -26.4583,26.4583 c -4.2334,4.2333 -7.4084,10.5833 -7.4084,18.5208 v 52.9167 c 0,8.4667 3.175,14.8167 7.4084,19.05 l 7.9375,7.4083 -7.9375,7.9375 c -4.2334,4.2334 -7.4084,10.5834 -7.4084,18.5209 v 79.375 c 0,8.4667 3.175,14.8167 7.4084,19.05 l 26.4583,26.4583 c 4.2333,4.2334 10.5833,7.4084 19.05,7.4084 h 105.8333 c 7.9375,0 14.2875,-3.175 18.5209,-7.4084 l 26.4583,-26.4583 c 4.2333,-4.2333 7.4083,-10.5833 7.4083,-19.05 v -79.375 c 0,-7.9375 -3.175,-14.2875 -7.4083,-18.5209 l -7.9375,-7.9375 7.9375,-7.4083 c 4.2333,-4.2333 7.4083,-10.5833 7.4083,-19.05 v -52.9167 c 0,-7.9375 -3.175,-14.2875 -7.4083,-18.5208 l -26.4583,-26.4583 c -4.2334,-4.2334 -10.5834,-7.9375 -18.5209,-7.9375 z m 10.5833,52.9166 h 84.1375 l 11.1125,11.1125 v 31.2209 l -11.1125,10.5833 h -84.1375 l -10.5833,-10.5833 v -31.2209 z m 0,105.8334 h 84.1375 l 11.1125,11.1125 v 57.6791 l -11.1125,11.1125 h -84.1375 l -10.5833,-11.1125 v -57.6791 z"
           style="font-style:normal;font-variant:normal;font-weight:normal;font-stretch:normal;font-size:529.16668701px;font-family:STDevGen_1stMix;-inkscape-font-specification:'STDevGen_1stMix, Normal';font-variant-ligatures:normal;font-variant-caps:normal;font-variant-numeric:normal;font-feature-settings:normal;text-align:start;writing-mode:lr-tb;text-anchor:start;fill:#ffffff;stroke:#000000;stroke-width:35.27777863;stroke-miterlimit:4;stroke-dasharray:none;paint-order:stroke markers fill"
           id="path895" />
      </g>
      <rect
         style="opacity:0.29720022;fill:none;fill-opacity:1;stroke:none;stroke-width:30.08498764;stroke-miterlimit:4;stroke-dasharray:none;stroke-dashoffset:0;paint-order:stroke markers fill"
         id="rect919"
         width="282.22223"
         height="352.77777"
         x="2471.6812"
         y="1384.6111" />
    </g>
    <g
       id="g968"
       transform="translate(-42.033403,-955.18609)"
       inkscape:export-xdpi="57.599998"
       inkscape:export-ydpi="57.599998">
      <g
         aria-label="9"
         style="font-style:normal;font-variant:normal;font-weight:normal;font-stretch:normal;font-size:529.16668701px;line-height:1.25;font-family:STDevGen_1stMix;-inkscape-font-specification:'STDevGen_1stMix, Normal';font-variant-ligatures:normal;font-variant-caps:normal;font-variant-numeric:normal;font-feature-settings:normal;text-align:start;letter-spacing:0px;word-spacing:0px;writing-mode:lr-tb;text-anchor:start;fill:#ffffff;fill-opacity:1;stroke:#000000;stroke-width:35.27777863;stroke-miterlimit:4;stroke-dasharray:none;paint-order:stroke markers fill"
         id="text899">
        <path
           d="m 2834.7864,1435.2525 v 132.2916 c 0,15.3459 11.1125,26.4584 26.4583,26.4584 h 132.2917 v 52.9166 h -158.75 v 26.4584 c 0,15.3458 11.1125,26.4583 25.9291,26.4583 h 158.7501 c 15.3458,0 26.4583,-11.1125 26.4583,-26.4583 v -238.125 c 0,-14.8167 -11.1125,-26.4584 -26.4583,-26.4584 h -158.7501 c -14.8166,0.5292 -25.9291,11.6417 -25.9291,26.4584 z m 52.9166,26.4583 h 105.8334 v 79.375 H 2887.703 Z"
           style="font-style:normal;font-variant:normal;font-weight:normal;font-stretch:normal;font-size:529.16668701px;font-family:STDevGen_1stMix;-inkscape-font-specification:'STDevGen_1stMix, Normal';font-variant-ligatures:normal;font-variant-caps:normal;font-variant-numeric:normal;font-feature-settings:normal;text-align:start;writing-mode:lr-tb;text-anchor:start;fill:#ffffff;stroke:#000000;stroke-width:35.27777863;stroke-miterlimit:4;stroke-dasharray:none;paint-order:stroke markers fill"
           id="path898" />
      </g>
      <rect
         y="1377.9261"
         x="2799.2439"
         height="352.77777"
         width="282.22223"
         id="rect921"
         style="opacity:0.29720022;fill:none;fill-opacity:1;stroke:none;stroke-width:30.08498764;stroke-miterlimit:4;stroke-dasharray:none;stroke-dashoffset:0;paint-order:stroke markers fill" />
    </g>
    <g
       id="g973"
       transform="translate(-1699.7608,-1309.8169)"
       inkscape:export-xdpi="57.599998"
       inkscape:export-ydpi="57.599998">
      <g
         aria-label="0"
         style="font-style:normal;font-variant:normal;font-weight:normal;font-stretch:normal;font-size:529.16668701px;line-height:1.25;font-family:STDevGen_1stMix;-inkscape-font-specification:'STDevGen_1stMix, Normal';font-variant-ligatures:normal;font-variant-caps:normal;font-variant-numeric:normal;font-feature-settings:normal;text-align:start;letter-spacing:0px;word-spacing:0px;writing-mode:lr-tb;text-anchor:start;fill:#ffffff;fill-opacity:1;stroke:#000000;stroke-width:35.27777863;stroke-miterlimit:4;stroke-dasharray:none;paint-order:stroke markers fill"
         id="text903">
        <path
           d="m 3222.5137,1401.8277 v 238.125 c 0,15.3458 11.1125,26.4583 26.4583,26.4583 h 158.75 c 14.8167,0 25.9292,-11.1125 25.9292,-26.4583 v -238.125 c 0,-14.8167 -11.1125,-26.4584 -25.9292,-26.4584 h -158.75 c -15.3458,0 -26.4583,11.6417 -26.4583,26.4584 z m 52.9166,26.4583 h 105.8334 v 185.2083 h -105.8334 z m 26.4584,52.9167 v 79.375 h 52.9166 v -79.375 z"
           style="font-style:normal;font-variant:normal;font-weight:normal;font-stretch:normal;font-size:529.16668701px;font-family:STDevGen_1stMix;-inkscape-font-specification:'STDevGen_1stMix, Normal';font-variant-ligatures:normal;font-variant-caps:normal;font-variant-numeric:normal;font-feature-settings:normal;text-align:start;writing-mode:lr-tb;text-anchor:start;fill:#ffffff;stroke:#000000;stroke-width:35.27777863;stroke-miterlimit:4;stroke-dasharray:none;paint-order:stroke markers fill"
           id="path871" />
      </g>
      <rect
         style="opacity:0.29720022;fill:none;fill-opacity:1;stroke:none;stroke-width:30.08498764;stroke-miterlimit:4;stroke-dasharray:none;stroke-dashoffset:0;paint-order:stroke markers fill"
         id="rect923"
         width="282.22223"
         height="352.77777"
         x="3186.9712"
         y="1344.5013" />
    </g>
    <rect
       style="opacity:0.29720022;fill:none;fill-opacity:1;stroke:none;stroke-width:54.60336685;stroke-miterlimit:4;stroke-dasharray:none;stroke-dashoffset:0;paint-order:stroke markers fill"
       id="rect975"
       width="3951.1113"
       height="282.22223"
       x="1487.2104"
       y="987.18451" />
    <path
       style="font-style:normal;font-variant:normal;font-weight:normal;font-stretch:normal;font-size:141.1111145px;line-height:1.25;font-family:STDevGen_1stMix;-inkscape-font-specification:'STDevGen_1stMix, Normal';font-variant-ligatures:normal;font-variant-caps:normal;font-variant-numeric:normal;font-feature-settings:normal;text-align:start;letter-spacing:0px;word-spacing:0px;writing-mode:lr-tb;text-anchor:start;fill:#0080ff;fill-opacity:1;stroke:#000000;stroke-width:53.33333969;stroke-miterlimit:4;stroke-dasharray:none;paint-order:stroke markers fill"
       d="m 3887.082,4292.1094 v 53.332 h -426.666 c -15.4667,0 -26.666,11.7347 -26.666,26.668 v 160 h -27.084 v -160 c 0,-14.9333 -11.7326,-26.1348 -26.666,-26.1348 h -240 v 26.1348 213.332 h 53.332 v -186.666 h 53.334 v 186.666 H 3300 v -186.666 h 53.332 v 186.666 h 293.75 c 14.9334,0 26.1348,-11.1994 26.1348,-26.666 v -160 h 27.1992 v 160 c 0,15.4666 11.1993,26.666 26.666,26.666 h 480 v -53.332 h -186.666 v -53.334 h 186.666 v -106.666 c 0,-14.9333 -11.7327,-26.668 -26.666,-26.668 H 3993.75 c -15.4666,0.5333 -26.668,11.7347 -26.668,26.668 v 160 h -26.666 v -240 z m -400,106.666 h 133.334 v 133.334 h -133.334 z m 266.668,0 h 133.332 v 133.334 H 3753.75 Z m 266.666,0 h 133.334 v 26.666 h -133.334 z"
       transform="matrix(0.26458334,0,0,0.26458334,-31.498017,-14.380335)"
       id="path875"
       inkscape:connector-curvature="0"
       sodipodi:nodetypes="cccsccssccccccccccccsccsccccccsscsccccccccccccccccccc"
       inkscape:export-xdpi="57.599998"
       inkscape:export-ydpi="57.599998" />
    <path
       style="font-style:normal;font-variant:normal;font-weight:normal;font-stretch:normal;font-size:352.777771px;line-height:1.25;font-family:STDevGen_1stMix;-inkscape-font-specification:'STDevGen_1stMix, Normal';font-variant-ligatures:normal;font-variant-caps:normal;font-variant-numeric:normal;font-feature-settings:normal;text-align:start;letter-spacing:0px;word-spacing:0px;writing-mode:lr-tb;text-anchor:start;fill:#ffffff;fill-opacity:1;stroke:#000000;stroke-width:133.33332825;stroke-miterlimit:4;stroke-dasharray:none;paint-order:markers stroke fill"
       d="m 7473.334,5052.1016 v 133.3339 h -400 c -38.6665,0 -66.668,29.333 -66.668,66.6661 v 400.0078 H 6940 v -400.0078 c 0,-37.3331 -29.333,-65.334 -66.666,-65.334 H 6340 v 465.3418 l -533.334,-0.01 v -133.3321 h 466.668 v -266.6679 c 0,-37.3331 -29.3326,-66.6661 -66.666,-66.6661 H 5740 c -38.6668,1.3331 -66.666,29.333 -66.666,66.6661 v 466.6679 c 0,38.6665 27.9992,66.666 66.666,66.666 h 733.334 v -466.6679 h 333.334 v 466.6679 h 799.998 v -599.9941 h 66.668 v 599.9961 l 800.5215,-0.01 v -133.3339 h -466.668 v -133.3321 h 466.668 v -199.9941 h 66.666 v 133.3262 c 0,38.6668 27.9995,66.6679 66.666,66.6679 h 400 v 133.3321 h -466.666 v 133.3339 h 1200 c 37.3334,0 65.332,-27.9995 65.332,-66.666 v -266.6679 c 0,-37.3335 -27.9986,-66.6661 -65.332,-66.6661 h -400 v -66.6679 h 466.666 v -133.3321 h -533.332 c -38.6669,0 -66.668,29.333 -66.668,66.6661 v 200 c 0,38.6668 28.0011,66.6679 66.668,66.6679 h 399.998 v 133.3321 h -466.666 v 0.01 h -68 v -200.0078 c 0,-37.3335 -27.999,-66.6661 -65.332,-66.6661 h -400.002 v -66.6679 h 466.668 v -133.3321 h -1200 c -38.6668,1.3331 -66.666,29.333 -66.666,66.6661 v 400.0078 h -67.1875 v -533.3379 c 0,-37.3334 -29.3449,-65.7828 -66.668,-66.6602 z m -1666.668,266.666 H 6140 v 66.6679 h -333.334 z m 1333.334,0 h 333.334 v 333.334 H 7140 Z m 867.1875,0 h 333.334 v 66.6679 h -333.334 z"
       transform="matrix(0.26458334,0,0,0.26458334,-31.498017,-14.380335)"
       id="path951"
       inkscape:connector-curvature="0"
       sodipodi:nodetypes="ccssccsscccccsscssccccccccccccccccsscccccsssccccsssscccccsscccccsccsccccccccccccccccc"
       inkscape:export-xdpi="57.600002"
       inkscape:export-ydpi="57.600002" />
    <path
       style="font-style:normal;font-variant:normal;font-weight:normal;font-stretch:normal;font-size:352.777771px;line-height:1.25;font-family:STDevGen_1stMix;-inkscape-font-specification:'STDevGen_1stMix, Normal';font-variant-ligatures:normal;font-variant-caps:normal;font-variant-numeric:normal;font-feature-settings:normal;text-align:start;letter-spacing:0px;word-spacing:0px;writing-mode:lr-tb;text-anchor:start;fill:#ffffff;fill-opacity:1;stroke:#000000;stroke-width:133.33332825;stroke-miterlimit:4;stroke-dasharray:none;paint-order:markers stroke fill"
       d="m 12672,5052.1094 1.201,599.998 h -66.535 v -399.998 c 0,-37.3334 -29.333,-65.334 -66.666,-65.334 h -533.334 v 465.332 h -533.332 v -133.334 H 11940 v -266.666 c 0,-37.3334 -29.333,-66.668 -66.666,-66.668 h -734.668 v 118.668 l -166.666,333.334 -165.334,-330.67 v -121.332 h -733.332 c -38.666,1.3334 -66.668,29.3346 -66.668,66.668 v 466.666 c 0,38.6668 28.002,66.666 66.668,66.666 h 533.332 v -133.332 H 10140 v -133.334 h 466.666 v -200 h 66.668 c 0,12 2.666,22.6678 6.666,30.668 l 218.666,435.998 h 148 l 218.666,-435.998 c 4,-8.0002 6.668,-18.668 6.668,-30.668 h 68 v 400 c 0,38.6668 27.999,66.666 66.666,66.666 H 12140 v -466.666 h 333.334 v 466.666 H 13072 v -133.332 h -266.666 v -333.334 H 13072 v -133.334 h -266.666 v -133.332 z m -2532,266.666 h 333.334 v 66.668 H 10140 Z m 1333.334,0 h 333.332 v 66.668 h -333.332 z"
       transform="matrix(0.26458334,0,0,0.26458334,-31.498017,-14.380335)"
       id="path940"
       inkscape:connector-curvature="0"
       sodipodi:nodetypes="cccsscccccscccccccssscccccccccccccscccccccccccccccccccccccc"
       inkscape:export-xdpi="57.623985"
       inkscape:export-ydpi="57.623985" />
    <path
       style="font-style:normal;font-variant:normal;font-weight:normal;font-stretch:normal;font-size:352.777771px;line-height:1.25;font-family:STDevGen_1stMix;-inkscape-font-specification:'STDevGen_1stMix, Normal';font-variant-ligatures:normal;font-variant-caps:normal;font-variant-numeric:normal;font-feature-settings:normal;text-align:start;letter-spacing:0px;word-spacing:0px;writing-mode:lr-tb;text-anchor:start;fill:#ffffff;fill-opacity:1;stroke:#000000;stroke-width:133.33332825;stroke-miterlimit:4;stroke-dasharray:none;paint-order:markers stroke fill"
       d="m 15938.666,5052.1094 0.268,133.332 h -65.6 H 15340 c -38.667,0 -66.666,29.3349 -66.666,66.668 v 200 c 0,38.6668 27.999,66.666 66.666,66.666 h 400 v 133.334 h -446.666 v 0 h -86.668 v -399.998 c 0,-37.3331 -29.333,-65.334 -66.666,-65.334 -378.311,-0.7329 -753.971,-1.334 -1133.332,-1.334 -38.666,0 -66.668,29.3349 -66.668,66.668 v 399.998 h -66.666 v -399.998 c 0,-37.3331 -29.333,-65.334 -66.666,-65.334 h -533.334 v 598.666 h 133.334 v -466.666 H 13740 v 466.666 h 733.334 c 37.333,0 65.334,-27.9996 65.334,-66.666 v -400 h 67.998 v 466.666 H 14740 v -466.666 h 333.334 v 466.666 h 733.332 c 37.333,0 65.334,-27.9996 65.334,-66.666 v -266.666 c 0,-37.3334 -28.001,-66.668 -65.334,-66.668 h -399.998 v -66.666 h 466.666 65.865 l 0.801,400 c 0,38.6664 28.001,66.666 65.334,66.666 h 934.145 c 37.333,0 65.333,-27.9996 65.333,-66.666 v -400 h 68 v 666.666 h 133.334 v -200 h 400 c 37.334,0 65.333,-27.9986 65.333,-65.332 v -466.668 c 0,-38.6664 -27.999,-66.666 -65.333,-66.666 l -1133.334,-1.334 c -38.666,0 -66.666,29.3349 -66.666,66.668 v 399.998 H 16300 v 0 h -228 v -333.334 h 266.668 v -133.334 H 16072 v -133.332 z m -1865.332,266.666 h 333.334 v 333.334 h -333.334 z m 2466.146,0 h 333.332 v 333.334 h -333.332 z m 666.666,0 h 333.334 v 333.334 h -333.334 z"
       transform="matrix(0.26458334,0,0,0.26458334,-31.498017,-14.380335)"
       id="path925"
       inkscape:connector-curvature="0"
       sodipodi:nodetypes="cccsssscccccsccsccsscccccccsccccccccssscccccccscccccsssccsccccccccccccccccccccccccc"
       inkscape:export-xdpi="57.623577"
       inkscape:export-ydpi="57.623577" />
    <path
       style="font-style:normal;font-variant:normal;font-weight:normal;font-stretch:normal;font-size:352.777771px;line-height:1.25;font-family:STDevGen_1stMix;-inkscape-font-specification:'STDevGen_1stMix, Normal';font-variant-ligatures:normal;font-variant-caps:normal;font-variant-numeric:normal;font-feature-settings:normal;text-align:start;letter-spacing:0px;word-spacing:0px;writing-mode:lr-tb;text-anchor:start;fill:#ffffff;fill-opacity:1;stroke:#000000;stroke-width:133.33332825;stroke-miterlimit:4;stroke-dasharray:none;paint-order:markers stroke fill"
       d="m 17940,5185.4414 c -38.667,0 -66.666,29.3349 -66.666,66.668 v 466.666 c 0,38.6664 27.999,66.666 66.666,66.666 h 466.668 c 37.333,0 65.332,-27.9996 65.332,-66.666 v -400 h 68 v 466.666 h 133.334 v -466.666 h 333.334 v 466.666 H 19340 v -533.332 c 0,-37.3331 -29.333,-65.334 -66.666,-65.334 h -66.666 v 465.332 H 19140 v -399.998 c 0,-37.3331 -29.333,-65.334 -66.666,-65.334 z m 66.668,133.334 H 18340 v 333.334 h -333.332 z"
       transform="matrix(0.26458334,0,0,0.26458334,-31.498017,-14.380335)"
       id="path918"
       inkscape:connector-curvature="0"
       sodipodi:nodetypes="csssssccccccccsscccsccccccc"
       inkscape:export-xdpi="57.600071"
       inkscape:export-ydpi="57.600071" />
  </g>
</svg>
