<?xml version="1.0" encoding="UTF-8" standalone="no"?>
<!-- Created with Inkscape (http://www.inkscape.org/) -->

<svg
   xmlns:dc="http://purl.org/dc/elements/1.1/"
   xmlns:cc="http://creativecommons.org/ns#"
   xmlns:rdf="http://www.w3.org/1999/02/22-rdf-syntax-ns#"
   xmlns:svg="http://www.w3.org/2000/svg"
   xmlns="http://www.w3.org/2000/svg"
   xmlns:sodipodi="http://sodipodi.sourceforge.net/DTD/sodipodi-0.dtd"
   xmlns:inkscape="http://www.inkscape.org/namespaces/inkscape"
   width="640mm"
   height="640mm"
   viewBox="0 0 640 640"
   version="1.1"
   id="svg947"
   inkscape:version="0.92.3 (2405546, 2018-03-11)"
   sodipodi:docname="steptech styled hold judgment.svg"
   inkscape:export-filename="HoldJudgment label 1x2 (doubleres).png"
   inkscape:export-xdpi="5.0799999"
   inkscape:export-ydpi="5.0799999">
  <defs
     id="defs941" />
  <sodipodi:namedview
     id="base"
     pagecolor="#ffffff"
     bordercolor="#666666"
     borderopacity="1.0"
     inkscape:pageopacity="0.0"
     inkscape:pageshadow="2"
     inkscape:zoom="0.12374369"
     inkscape:cx="523.15143"
     inkscape:cy="-1.5565446"
     inkscape:document-units="mm"
     inkscape:current-layer="layer1"
     showgrid="false"
     inkscape:window-width="1920"
     inkscape:window-height="1017"
     inkscape:window-x="1912"
     inkscape:window-y="-8"
     inkscape:window-maximized="1" />
  <metadata
     id="metadata944">
    <rdf:RDF>
      <cc:Work
         rdf:about="">
        <dc:format>image/svg+xml</dc:format>
        <dc:type
           rdf:resource="http://purl.org/dc/dcmitype/StillImage" />
        <dc:title />
      </cc:Work>
    </rdf:RDF>
  </metadata>
  <g
     inkscape:label="Layer 1"
     inkscape:groupmode="layer"
     id="layer1"
     transform="translate(0,343)">
    <g
       id="g1532"
       transform="translate(0,-6.6623627)">
      <g
         inkscape:export-ydpi="57.60284"
         inkscape:export-xdpi="57.60284"
         inkscape:export-filename="fulloutline judgment ok (doubleres).png"
         id="group_ok"
         transform="translate(-1793.3909,364.90456)">
        <rect
           y="-776.70612"
           x="1928.1829"
           height="388.05557"
           width="370.41629"
           id="rect1296"
           style="fill:none;fill-opacity:1;stroke:none;stroke-width:94.7832489;stroke-miterlimit:4;stroke-dasharray:none;stroke-dashoffset:0;paint-order:markers stroke fill" />
        <path
           inkscape:connector-curvature="0"
           style="font-style:normal;font-variant:normal;font-weight:normal;font-stretch:normal;font-size:352.77780151px;line-height:1.25;font-family:STDevGen_1stMix;-inkscape-font-specification:'STDevGen_1stMix, Normal';font-variant-ligatures:normal;font-variant-caps:normal;font-variant-numeric:normal;font-feature-settings:normal;text-align:start;letter-spacing:0px;word-spacing:0px;writing-mode:lr-tb;text-anchor:start;fill:#ffdb3d;fill-opacity:1;stroke:#000000;stroke-width:133.33332825;stroke-miterlimit:4;stroke-dasharray:none;paint-order:markers stroke fill;opacity:1"
           d="M 8666.666,3266.668 V 3400 h -133.334 -5.998 -460.668 c -38.6668,0 -66.666,29.3346 -66.666,66.668 v 466.666 c 0,38.6667 27.9992,66.666 66.666,66.666 h 466.666 c 37.3334,0 65.334,-27.9993 65.334,-66.666 v -400.002 h 68 V 4000 H 8800 v -225.332 l 333.332,166.666 V 4000 h 133.334 v -100 c 0,-29.3333 -17.3342,-49.3327 -37.334,-58.666 l -302.666,-152 298.666,-128 c 22.6666,-9.3334 41.334,-29.334 41.334,-61.334 v -100 h -133.334 v 57.334 L 8800,3600 v -333.332 z m -533.334,266.666 h 333.334 v 333.334 h -333.334 z"
           transform="matrix(0.26458335,0,0,0.26458335,-170.84525,-1517.5394)"
           id="path1173" />
      </g>
      <g
         inkscape:export-ydpi="57.60284"
         inkscape:export-xdpi="57.60284"
         inkscape:export-filename="fulloutline judgment ng (doubleres).png"
         id="group_ng"
         transform="translate(-2216.7242,684.90447)">
        <rect
           style="fill:none;fill-opacity:1;stroke:none;stroke-width:94.78325653;stroke-miterlimit:4;stroke-dasharray:none;stroke-dashoffset:0;paint-order:markers stroke fill"
           id="rect1298"
           width="370.41632"
           height="388.05557"
           x="2351.5161"
           y="-776.70612" />
        <path
           inkscape:connector-curvature="0"
           style="font-style:normal;font-variant:normal;font-weight:normal;font-stretch:normal;font-size:352.77780151px;line-height:1.25;font-family:STDevGen_1stMix;-inkscape-font-specification:'STDevGen_1stMix, Normal';font-variant-ligatures:normal;font-variant-caps:normal;font-variant-numeric:normal;font-feature-settings:normal;text-align:start;letter-spacing:0px;word-spacing:0px;writing-mode:lr-tb;text-anchor:start;fill:#d800ea;fill-opacity:1;stroke:#000000;stroke-width:133.33332825;stroke-miterlimit:4;stroke-dasharray:none;paint-order:markers stroke fill"
           d="m 10332,3400 c -37.334,1.3334 -65.334,29.3346 -65.334,66.668 v 399.998 H 10200 v -399.998 c 0,-37.3334 -29.334,-65.334 -66.668,-65.334 H 9600 V 4000 h 133.332 v -466.666 h 333.334 V 4000 h 38.668 94.666 133.332 44.668 355.332 v 66.668 h -466.666 V 4200 H 10800 c 37.333,0 65.332,-27.9993 65.332,-66.666 V 3400 Z m 68,133.334 h 333.332 v 333.334 H 10400 Z"
           transform="matrix(0.26458335,0,0,0.26458335,-170.84525,-1517.5394)"
           id="path1177" />
      </g>
    </g>
  </g>
</svg>
